<svg aria-hidden="true" style="position:absolute;width:0;height:0" xmlns="http://www.w3.org/2000/svg" overflow="hidden">
  <defs>
    <symbol id="arrow-right" viewBox="0 0 24 24">
      <path d="M11.293 5.707l5.293 5.293h-11.586c-0.552 0-1 0.448-1 1s0.448 1 1 1h11.586l-5.293 5.293c-0.391 0.391-0.391 1.024 0 1.414s1.024 0.391 1.414 0l7-7c0.092-0.092 0.166-0.202 0.217-0.324 0.101-0.245 0.101-0.521 0-0.766-0.049-0.118-0.121-0.228-0.217-0.324l-7-7c-0.391-0.391-1.024-0.391-1.414 0s-0.391 1.024 0 1.414z"></path>
    </symbol>
    <symbol id="chevron-right" viewBox="0 0 20 20">
      <path d="M9.16 4.52c.42.4 4.5 4.7 4.5 4.7a1.1 1.1 0 0 1 0 1.57s-4.08 4.29-4.5 4.7c-.41.4-1.17.43-1.61 0-.45-.44-.48-1.05 0-1.58L11.3 10 7.54 6.1c-.48-.54-.45-1.15 0-1.58s1.2-.41 1.61 0z"/>
    </symbol>
    <symbol id="menu" viewBox="0 0 20 20">
      <path d="M0 3h20v2H0V3zm0 6h20v2H0V9zm0 6h20v2H0v-2z"/>
    </symbol>
    <symbol id="close" viewBox="0 0 20 20">
      <path d="M10 8.59 2.93 1.52l-1.41 1.4L8.59 10l-7.07 7.07 1.4 1.41L10 11.41l7.07 7.07 1.41-1.4L11.41 10l7.07-7.07-1.4-1.42L10 8.6z"/>
    </symbol>
    <symbol id="review-points" viewBox="0 0 256 32">
      <path d="M144 16a16 16 0 1 1-32 0 16 16 0 0 1 32 0zM32 16a16 16 0 1 1-32 0 16 16 0 0 1 32 0zM256 16a16 16 0 1 1-32 0 16 16 0 0 1 32 0z"/>
    </symbol>
    <symbol id="points" viewBox="0 0 139 32">
      <path d="M85.33 16a16 16 0 1 1-32 0 16 16 0 0 1 32 0zM32 16a16 16 0 1 1-32 0 16 16 0 0 1 32 0zM138.67 16a16 16 0 1 1-32 0 16 16 0 0 1 32 0z"/>
    </symbol>
    <symbol id="review-quots" viewBox="0 0 43 32">
      <path d="M32.01 0c1.93 0 3.75.52 5.47 1.56s3.1 2.54 4.18 4.49c1.03 1.95 1.54 4.25 1.54 6.9s-.64 5.22-1.93 7.73c-.43.91-1.2 2.08-2.31 3.52a63.37 63.37 0 0 1-3.22 3.7L31.7 32l-2.89-4.81a22.03 22.03 0 0 0 5.34-4.69c1.54-1.82 2.31-3.49 2.31-5 0-.78-.17-1.41-.51-1.89a8.36 8.36 0 0 1-5.02 1.63 6.6 6.6 0 0 1-3.8-1.24 8.56 8.56 0 0 1-2.95-3.12 7.37 7.37 0 0 1-1.16-3.9c0-1.52.45-2.97 1.35-4.36.86-1.39 2-2.52 3.41-3.38A8.13 8.13 0 0 1 32.02 0zM8.94 0c1.93 0 3.75.52 5.46 1.56s3.1 2.54 4.18 4.49a14.58 14.58 0 0 1 1.54 6.9c0 1.86-.23 3.53-.7 5a17.3 17.3 0 0 1-2.45 4.75 36.67 36.67 0 0 1-3.15 3.9c-.98 1.09-2.7 2.89-5.14 5.4l-2.9-4.81a22.03 22.03 0 0 0 5.34-4.69c1.55-1.82 2.32-3.49 2.32-5 0-.78-.17-1.41-.52-1.9a8.36 8.36 0 0 1-5.01 1.64A6.6 6.6 0 0 1 4.1 16a8.56 8.56 0 0 1-2.95-3.12A7.37 7.37 0 0 1 0 8.98C0 7.46.43 6 1.3 4.62s1.99-2.52 3.4-3.38A8.13 8.13 0 0 1 8.94 0z"/>
    </symbol>
    <symbol id="facebook" viewBox="0 0 32 32">
      <path fill="var(--color4, #fea5bb)" d="M16 32a16 16 0 1 0 0-32 16 16 0 0 0 0 32z"/>
      <path fill="var(--color2, #fff)" d="M20.45 15.98h-2.61v9.62h-3.96v-9.62H12V12.6h1.88v-2.18c0-1.57.74-4.02 4-4.02l2.92.01V9.7h-2.13c-.34 0-.83.18-.83.93v1.98h2.95l-.34 3.38z"/>
    </symbol>
    <symbol id="telegram" viewBox="0 0 32 32">
      <path fill="var(--color4, #fea5bb)" d="M32 16a16 16 0 1 1-32 0 16 16 0 0 1 32 0z"/>
      <path fill="var(--color2, #fff)" d="m12.87 18.38-.32 4.16c.45 0 .65-.18.89-.4l2.13-1.9 4.41 3.02c.81.42 1.38.2 1.6-.7l2.9-12.67c.26-1.11-.43-1.55-1.22-1.28L6.22 14.7c-1.16.42-1.14 1.02-.2 1.3l4.36 1.26 10.12-5.9c.47-.3.9-.14.55.16l-8.18 6.86z"/>
    </symbol>
    <symbol id="github" viewBox="0 0 32 32">
      <path fill="var(--color4, #fea5bb)" d="M32 16a16 16 0 1 1-32 0 16 16 0 0 1 32 0z"/>
      <path fill="var(--color2, #fff)" d="M16 6.59A9.45 9.45 0 0 0 6.59 16c0 4.41 3.1 8.42 7.2 9.41V22.3c-.4.09-.78.09-1.2-.03-.55-.17-1-.54-1.34-1.1-.21-.36-.59-.75-.98-.73l-.1-1.1c.85-.07 1.6.53 2.03 1.26.2.33.42.52.71.61.28.08.58.04.93-.08.08-.7.4-.96.64-1.33-2.45-.36-3.42-1.66-3.81-2.69a4.32 4.32 0 0 1 .67-4.14c.02-.02.05-.08.04-.12-.42-1.25.09-2.3.1-2.4.49.14.57-.15 2.1.78l.26.16c.11.06.08.03.19.02a8.03 8.03 0 0 1 1.97-.28c.67.01 1.34.1 2 .29h.09l.07-.03c1.91-1.16 1.85-.78 2.36-.95.02.11.52 1.17.1 2.41-.05.17 1.66 1.74.71 4.26-.38 1.03-1.36 2.33-3.81 2.7.31.47.69.73.69 1.72v3.88c4.1-.99 7.2-5 7.2-9.4a9.45 9.45 0 0 0-9.4-9.42z"/>
    </symbol>
    <symbol id="home" viewBox="0 0 32 32">
      <path fill="var(--color5, #d31342)" d="M31.6 15.43c.58-.6.52-1.5-.13-2.03L17.17 1.72a1.88 1.88 0 0 0-2.32.03L.5 14.02a1.35 1.35 0 0 0-.07 2.03l.36.35c.6.58 1.56.65 2.15.16l1.08-.9v13.12c0 .8.7 1.45 1.56 1.45h5.59c.86 0 1.56-.65 1.56-1.45V19.6h7.14v9.18c-.02.8.6 1.45 1.46 1.45h5.93c.86 0 1.56-.65 1.56-1.45V15.85l.66.54c.36.3 1.13.06 1.71-.54l.41-.42z"/>
    </symbol>
  </defs>
</svg>
