<svg aria-hidden="true" style="position:absolute;width:0;height:0" xmlns="http://www.w3.org/2000/svg" overflow="hidden">
  <defs>
    <symbol id="arrow-right" viewBox="0 0 24 24">
      <path d="M11.293 5.707l5.293 5.293h-11.586c-0.552 0-1 0.448-1 1s0.448 1 1 1h11.586l-5.293 5.293c-0.391 0.391-0.391 1.024 0 1.414s1.024 0.391 1.414 0l7-7c0.092-0.092 0.166-0.202 0.217-0.324 0.101-0.245 0.101-0.521 0-0.766-0.049-0.118-0.121-0.228-0.217-0.324l-7-7c-0.391-0.391-1.024-0.391-1.414 0s-0.391 1.024 0 1.414z"></path>
    </symbol>
    <symbol id="icon-close" viewBox="0 0 32 32">
      <path d="M26.667 7.303l-1.97-1.97-7.808 7.808-7.808-7.808-1.97 1.97 7.808 7.808-7.808 7.808 1.97 1.97 7.808-7.808 7.808 7.808 1.97-1.97-7.808-7.808 7.808-7.808z">
      </path>
    </symbol>
    <symbol id="chevron-right">
      <path d="M9.16 4.52c.42.4 4.5 4.7 4.5 4.7a1.1 1.1 0 0 1 0 1.57s-4.08 4.29-4.5 4.7c-.41.4-1.17.43-1.61 0-.45-.44-.48-1.05 0-1.58L11.3 10 7.54 6.1c-.48-.54-.45-1.15 0-1.58s1.2-.41 1.61 0z"/>
    </symbol>
    <symbol id="menu" viewBox="0 0 20 20">
      <path d="M0 3h20v2H0V3zm0 6h20v2H0V9zm0 6h20v2H0v-2z"/>
    </symbol>
    <symbol id="close" viewBox="0 0 20 20">
      <path d="M10 8.59 2.93 1.52l-1.41 1.4L8.59 10l-7.07 7.07 1.4 1.41L10 11.41l7.07 7.07 1.41-1.4L11.41 10l7.07-7.07-1.4-1.42L10 8.6z"/>
    </symbol>
    <symbol id="review-points" viewBox="0 0 256 32">
      <path d="M144 16a16 16 0 1 1-32 0 16 16 0 0 1 32 0zM32 16a16 16 0 1 1-32 0 16 16 0 0 1 32 0zM256 16a16 16 0 1 1-32 0 16 16 0 0 1 32 0z"/>
    </symbol>
    <symbol id="points" viewBox="0 0 139 32">
      <path d="M85.33 16a16 16 0 1 1-32 0 16 16 0 0 1 32 0zM32 16a16 16 0 1 1-32 0 16 16 0 0 1 32 0zM138.67 16a16 16 0 1 1-32 0 16 16 0 0 1 32 0z"/>
    </symbol>
    <symbol id="review-quots" viewBox="0 0 43 32">
      <path d="M32.01 0c1.93 0 3.75.52 5.47 1.56s3.1 2.54 4.18 4.49c1.03 1.95 1.54 4.25 1.54 6.9s-.64 5.22-1.93 7.73c-.43.91-1.2 2.08-2.31 3.52a63.37 63.37 0 0 1-3.22 3.7L31.7 32l-2.89-4.81a22.03 22.03 0 0 0 5.34-4.69c1.54-1.82 2.31-3.49 2.31-5 0-.78-.17-1.41-.51-1.89a8.36 8.36 0 0 1-5.02 1.63 6.6 6.6 0 0 1-3.8-1.24 8.56 8.56 0 0 1-2.95-3.12 7.37 7.37 0 0 1-1.16-3.9c0-1.52.45-2.97 1.35-4.36.86-1.39 2-2.52 3.41-3.38A8.13 8.13 0 0 1 32.02 0zM8.94 0c1.93 0 3.75.52 5.46 1.56s3.1 2.54 4.18 4.49a14.58 14.58 0 0 1 1.54 6.9c0 1.86-.23 3.53-.7 5a17.3 17.3 0 0 1-2.45 4.75 36.67 36.67 0 0 1-3.15 3.9c-.98 1.09-2.7 2.89-5.14 5.4l-2.9-4.81a22.03 22.03 0 0 0 5.34-4.69c1.55-1.82 2.32-3.49 2.32-5 0-.78-.17-1.41-.52-1.9a8.36 8.36 0 0 1-5.01 1.64A6.6 6.6 0 0 1 4.1 16a8.56 8.56 0 0 1-2.95-3.12A7.37 7.37 0 0 1 0 8.98C0 7.46.43 6 1.3 4.62s1.99-2.52 3.4-3.38A8.13 8.13 0 0 1 8.94 0z"/>
    </symbol>
    <symbol id="facebook" viewBox="0 0 32 32">
      <path d="M16 32a16 16 0 1 0 0-32 16 16 0 0 0 0 32z"/>
      <path fill="var(--color2, #fff)" d="M20.45 15.98h-2.61v9.62h-3.96v-9.62H12V12.6h1.88v-2.18c0-1.57.74-4.02 4-4.02l2.92.01V9.7h-2.13c-.34 0-.83.18-.83.93v1.98h2.95l-.34 3.38z"/>
    </symbol>
    <symbol id="telegram" viewBox="0 0 32 32">
      <path d="M32 16a16 16 0 1 1-32 0 16 16 0 0 1 32 0z"/>
      <path fill="var(--color2, #fff)" d="m12.87 18.38-.32 4.16c.45 0 .65-.18.89-.4l2.13-1.9 4.41 3.02c.81.42 1.38.2 1.6-.7l2.9-12.67c.26-1.11-.43-1.55-1.22-1.28L6.22 14.7c-1.16.42-1.14 1.02-.2 1.3l4.36 1.26 10.12-5.9c.47-.3.9-.14.55.16l-8.18 6.86z"/>
    </symbol>
    <symbol id="github" viewBox="0 0 32 32">
      <path d="M32 16a16 16 0 1 1-32 0 16 16 0 0 1 32 0z"/>
      <path fill="var(--color2, #fff)" d="M16 6.59A9.45 9.45 0 0 0 6.59 16c0 4.41 3.1 8.42 7.2 9.41V22.3c-.4.09-.78.09-1.2-.03-.55-.17-1-.54-1.34-1.1-.21-.36-.59-.75-.98-.73l-.1-1.1c.85-.07 1.6.53 2.03 1.26.2.33.42.52.71.61.28.08.58.04.93-.08.08-.7.4-.96.64-1.33-2.45-.36-3.42-1.66-3.81-2.69a4.32 4.32 0 0 1 .67-4.14c.02-.02.05-.08.04-.12-.42-1.25.09-2.3.1-2.4.49.14.57-.15 2.1.78l.26.16c.11.06.08.03.19.02a8.03 8.03 0 0 1 1.97-.28c.67.01 1.34.1 2 .29h.09l.07-.03c1.91-1.16 1.85-.78 2.36-.95.02.11.52 1.17.1 2.41-.05.17 1.66 1.74.71 4.26-.38 1.03-1.36 2.33-3.81 2.7.31.47.69.73.69 1.72v3.88c4.1-.99 7.2-5 7.2-9.4a9.45 9.45 0 0 0-9.4-9.42z"/>
    </symbol>
    <symbol id="home" viewBox="0 0 32 32">
      <path fill="var(--color5, #d31342)" d="M31.6 15.43c.58-.6.52-1.5-.13-2.03L17.17 1.72a1.88 1.88 0 0 0-2.32.03L.5 14.02a1.35 1.35 0 0 0-.07 2.03l.36.35c.6.58 1.56.65 2.15.16l1.08-.9v13.12c0 .8.7 1.45 1.56 1.45h5.59c.86 0 1.56-.65 1.56-1.45V19.6h7.14v9.18c-.02.8.6 1.45 1.46 1.45h5.93c.86 0 1.56-.65 1.56-1.45V15.85l.66.54c.36.3 1.13.06 1.71-.54l.41-.42z"/>
    </symbol>
    <symbol id="logo" viewBox="0 0 32 32">
      <path fill="#d41443" style="fill: var(--color1, #d41443)" d="M31.683 15.842c0 8.749-7.093 15.842-15.842 15.842s-15.842-7.093-15.842-15.842c0-8.749 7.093-15.842 15.842-15.842s15.842 7.093 15.842 15.842z"></path>
      <path fill="#fff" style="fill: var(--color2, #fff)" d="M15.842 5.624l0.031-0.95-0.031-0.001-0.031 0.001 0.031 0.95zM26.136 17.93v0zM26.136 18.188v0zM17.511 23.984v0zM20.673 29.307c1.028 0 2.337-0.28 3.365-1.308l-1.344-1.344c-0.556 0.556-1.306 0.751-2.021 0.751v1.901zM24.038 27.999c0.893-0.893 1.13-2.044 1.192-3.302 0.059-1.204-0.042-2.86-0.042-4.736h-1.901c0 2.084 0.102 3.473 0.044 4.643-0.055 1.116-0.254 1.668-0.637 2.051l1.344 1.344zM19.723 20.436v1.977h1.901v-1.977h-1.901zM17.584 22.294v-1.938h-1.901v1.938h1.901zM25.188 16.079c0-0.861 0.080-2.148-0.023-3.386-0.106-1.271-0.409-2.666-1.255-3.888l-1.563 1.082c0.58 0.837 0.831 1.858 0.923 2.964 0.095 1.138 0.016 2.188 0.016 3.228h1.901zM10.059 28.356v3.644h1.901v-3.644h-1.901zM11.010 29.307c0.003 0 0.006 0 0.008 0s0.006 0 0.009 0c0.003 0 0.006 0 0.009 0s0.006 0 0.009 0c0.003 0 0.006 0 0.009 0s0.006 0 0.009 0c0.003 0 0.006 0 0.009 0s0.006 0 0.009 0c0.003 0 0.006 0 0.009 0s0.006 0 0.009 0c0.003 0 0.006 0 0.010 0s0.006 0 0.010 0c0.003 0 0.007 0 0.010 0s0.007 0 0.010 0c0.003 0 0.007 0 0.010 0s0.007 0 0.010 0c0.003 0 0.007 0 0.010 0s0.007 0 0.010 0c0.004 0 0.007 0 0.011 0s0.007 0 0.011 0c0.004 0 0.007 0 0.011 0s0.007 0 0.011 0c0.004 0 0.007 0 0.011 0s0.007 0 0.011 0c0.004 0 0.007 0 0.011 0s0.008 0 0.011 0c0.004 0 0.008 0 0.011 0s0.008 0 0.012 0c0.004 0 0.008 0 0.012 0s0.008 0 0.012 0c0.004 0 0.008 0 0.012 0s0.008 0 0.012 0c0.004 0 0.008 0 0.012 0s0.008 0 0.012 0c0.004 0 0.008 0 0.012 0s0.008 0 0.012 0c0.004 0 0.008 0 0.013 0s0.008 0 0.013 0c0.004 0 0.008 0 0.013 0s0.009 0 0.013 0c0.004 0 0.009 0 0.013 0s0.009 0 0.013 0c0.004 0 0.009 0 0.013 0s0.009 0 0.013 0c0.004 0 0.009 0 0.013 0s0.009 0 0.013 0c0.005 0 0.009 0 0.014 0s0.009 0 0.014 0c0.005 0 0.009 0 0.014 0s0.009 0 0.014 0c0.005 0 0.009 0 0.014 0s0.009 0 0.014 0c0.005 0 0.009 0 0.014 0s0.009 0 0.014 0c0.005 0 0.010 0 0.014 0s0.010 0 0.014 0c0.005 0 0.010 0 0.015 0s0.010 0 0.015 0c0.005 0 0.010 0 0.015 0s0.010 0 0.015 0c0.005 0 0.010 0 0.015 0s0.010 0 0.015 0c0.005 0 0.010 0 0.015 0s0.010 0 0.015 0c0.005 0 0.010 0 0.015 0s0.010 0 0.015 0c0.005 0 0.010 0 0.015 0s0.010 0 0.016 0c0.005 0 0.010 0 0.016 0s0.011 0 0.016 0c0.005 0 0.011 0 0.016 0s0.011 0 0.016 0c0.005 0 0.011 0 0.016 0s0.011 0 0.016 0c0.005 0 0.011 0 0.016 0s0.011 0 0.016 0c0.005 0 0.011 0 0.016 0s0.011 0 0.016 0c0.005 0 0.011 0 0.017 0s0.011 0 0.017 0c0.006 0 0.011 0 0.017 0s0.011 0 0.017 0c0.006 0 0.011 0 0.017 0s0.011 0 0.017 0c0.006 0 0.011 0 0.017 0s0.011 0 0.017 0c0.006 0 0.011 0 0.017 0s0.012 0 0.017 0c0.006 0 0.012 0 0.017 0s0.012 0 0.017 0c0.006 0 0.012 0 0.018 0s0.012 0 0.018 0c0.006 0 0.012 0 0.018 0s0.012 0 0.018 0c0.006 0 0.012 0 0.018 0s0.012 0 0.018 0c0.006 0 0.012 0 0.018 0s0.012 0 0.018 0c0.006 0 0.012 0 0.018 0s0.012 0 0.018 0c0.006 0 0.012 0 0.018 0s0.012 0 0.018 0c0.006 0 0.012 0 0.018 0s0.012 0 0.019 0c0.006 0 0.012 0 0.019 0s0.012 0 0.019 0c0.006 0 0.012 0 0.019 0s0.013 0 0.019 0c0.006 0 0.013 0 0.019 0s0.013 0 0.019 0c0.006 0 0.013 0 0.019 0s0.013 0 0.019 0c0.006 0 0.013 0 0.019 0s0.013 0 0.019 0c0.006 0 0.013 0 0.019 0s0.013 0 0.019 0c0.006 0 0.013 0 0.019 0s0.013 0 0.020 0c0.007 0 0.013 0 0.020 0s0.013 0 0.020 0c0.007 0 0.013 0 0.020 0s0.013 0 0.020 0c0.007 0 0.013 0 0.020 0s0.013 0 0.020 0c0.007 0 0.013 0 0.020 0s0.013 0 0.020 0c0.007 0 0.013 0 0.020 0s0.013 0 0.020 0c0.007 0 0.013 0 0.020 0s0.014 0 0.020 0c0.007 0 0.014 0 0.020 0s0.014 0 0.020 0c0.007 0 0.014 0 0.020 0s0.014 0 0.021 0c0.007 0 0.014 0 0.021 0s0.014 0 0.021 0c0.007 0 0.014 0 0.021 0s0.014 0 0.021 0c0.007 0 0.014 0 0.021 0s0.014 0 0.021 0c0.007 0 0.014 0 0.021 0s0.014 0 0.021 0c0.007 0 0.014 0 0.021 0s0.014 0 0.021 0c0.007 0 0.014 0 0.021 0s0.014 0 0.021 0c0.007 0 0.014 0 0.021 0s0.014 0 0.021 0c0.007 0 0.014 0 0.021 0s0.014 0 0.021 0c0.007 0 0.014 0 0.021 0s0.014 0 0.021 0c0.007 0 0.014 0 0.022 0s0.014 0 0.022 0c0.007 0 0.014 0 0.022 0s0.014 0 0.022 0c0.007 0 0.014 0 0.022 0s0.014 0 0.022 0c0.007 0 0.015 0 0.022 0s0.015 0 0.022 0c0.007 0 0.015 0 0.022 0s0.015 0 0.022 0c0.007 0 0.015 0 0.022 0s0.015 0 0.022 0c0.007 0 0.015 0 0.022 0s0.015 0 0.022 0c0.007 0 0.015 0 0.022 0s0.015 0 0.022 0c0.007 0 0.015 0 0.022 0s0.015 0 0.022 0c0.007 0 0.015 0 0.022 0s0.015 0 0.022 0c0.007 0 0.015 0 0.022 0s0.015 0 0.023 0c0.008 0 0.015 0 0.023 0s0.015 0 0.023 0c0.008 0 0.015 0 0.023 0s0.015 0 0.023 0c0.008 0 0.015 0 0.023 0s0.015 0 0.023 0c0.008 0 0.015 0 0.023 0s0.015 0 0.023 0c0.008 0 0.015 0 0.023 0s0.015 0 0.023 0c0.008 0 0.015 0 0.023 0s0.015 0 0.023 0c0.008 0 0.015 0 0.023 0s0.015 0 0.023 0c0.008 0 0.015 0 0.023 0s0.015 0 0.023 0c0.008 0 0.015 0 0.023 0s0.015 0 0.023 0c0.008 0 0.015 0 0.023 0s0.015 0 0.023 0c0.008 0 0.015 0 0.023 0s0.015 0 0.023 0c0.008 0 0.016 0 0.023 0s0.016 0 0.023 0c0.008 0 0.016 0 0.023 0s0.016 0 0.023 0c0.008 0 0.016 0 0.023 0s0.016 0 0.023 0c0.008 0 0.016 0 0.023 0s0.016 0 0.023 0c0.008 0 0.016 0 0.024 0s0.016 0 0.024 0c0.008 0 0.016 0 0.024 0s0.016 0 0.024 0c0.008 0 0.016 0 0.024 0s0.016 0 0.024 0c0.008 0 0.016 0 0.024 0s0.016 0 0.024 0c0.008 0 0.016 0 0.024 0s0.016 0 0.024 0c0.008 0 0.016 0 0.024 0s0.016 0 0.024 0c0.008 0 0.016 0 0.024 0s0.016 0 0.024 0c0.008 0 0.016 0 0.024 0s0.016 0 0.024 0c0.008 0 0.016 0 0.024 0s0.016 0 0.024 0c0.008 0 0.016 0 0.024 0s0.016 0 0.024 0c0.008 0 0.016 0 0.024 0s0.016 0 0.024 0c0.008 0 0.016 0 0.024 0s0.016 0 0.024 0c0.008 0 0.016 0 0.024 0s0.016 0 0.024 0c0.008 0 0.016 0 0.024 0s0.016 0 0.024 0c0.008 0 0.016 0 0.024 0s0.016 0 0.024 0c0.008 0 0.016 0 0.024 0s0.016 0 0.024 0c0.008 0 0.016 0 0.024 0s0.016 0 0.024 0c0.008 0 0.016 0 0.024 0s0.016 0 0.024 0c0.008 0 0.016 0 0.024 0s0.016 0 0.024 0c0.008 0 0.016 0 0.024 0s0.016 0 0.024 0c0.008 0 0.016 0 0.024 0s0.016 0 0.024 0c0.008 0 0.016 0 0.024 0s0.016 0 0.024 0c0.008 0 0.016 0 0.024 0s0.016 0 0.024 0c0.008 0 0.016 0 0.024 0s0.016 0 0.024 0c0.008 0 0.016 0 0.024 0s0.016 0 0.024 0c0.008 0 0.016 0 0.024 0s0.016 0 0.024 0c0.008 0 0.016 0 0.024 0s0.016 0 0.024 0c0.008 0 0.016 0 0.024 0s0.016 0 0.024 0c0.008 0 0.016 0 0.024 0s0.016 0 0.024 0 0.016 0 0.024 0 0.016 0 0.024 0c0.008 0 0.016 0 0.024 0s0.016 0 0.024 0 0.016 0 0.024 0 0.016 0 0.024 0c0.008 0 0.016 0 0.024 0s0.016 0 0.024 0c0.008 0 0.016 0 0.024 0s0.016 0 0.024 0c0.008 0 0.016 0 0.024 0s0.016 0 0.024 0c0.008 0 0.016 0 0.024 0s0.016 0 0.024 0c0.008 0 0.016 0 0.024 0s0.016 0 0.024 0c0.008 0 0.016 0 0.024 0s0.016 0 0.024 0c0.008 0 0.016 0 0.024 0s0.016 0 0.024 0 0.016 0 0.024 0 0.016 0 0.024 0c0.008 0 0.016 0 0.024 0s0.016 0 0.024 0c0.008 0 0.016 0 0.024 0s0.016 0 0.024 0c0.008 0 0.016 0 0.024 0s0.016 0 0.024 0c0.008 0 0.016 0 0.024 0s0.016 0 0.024 0c0.008 0 0.016 0 0.024 0s0.016 0 0.024 0c0.008 0 0.016 0 0.024 0s0.016 0 0.024 0c0.008 0 0.016 0 0.024 0s0.016 0 0.024 0c0.008 0 0.016 0 0.024 0s0.016 0 0.024 0 0.016 0 0.024 0 0.016 0 0.024 0c0.008 0 0.016 0 0.024 0s0.016 0 0.023 0c0.008 0 0.016 0 0.024 0s0.016 0 0.024 0c0.008 0 0.016 0 0.023 0s0.016 0 0.024 0c0.008 0 0.016 0 0.023 0s0.016 0 0.023 0c0.008 0 0.016 0 0.023 0s0.016 0 0.023 0 0.016 0 0.023 0 0.016 0 0.023 0 0.016 0 0.023 0 0.016 0 0.023 0 0.016 0 0.023 0 0.016 0 0.023 0c0.008 0 0.015 0 0.023 0s0.015 0 0.023 0c0.008 0 0.016 0 0.023 0s0.015 0 0.023 0 0.015 0 0.023 0 0.015 0 0.023 0c0.008 0 0.015 0 0.023 0s0.015 0 0.023 0c0.008 0 0.015 0 0.023 0s0.015 0 0.023 0c0.008 0 0.015 0 0.023 0s0.015 0 0.023 0c0.008 0 0.015 0 0.023 0s0.015 0 0.023 0c0.008 0 0.015 0 0.023 0s0.015 0 0.023 0c0.008 0 0.015 0 0.023 0s0.015 0 0.023 0c0.008 0 0.015 0 0.023 0s0.015 0 0.023 0c0.007 0 0.015 0 0.023 0s0.015 0 0.023 0c0.007 0 0.015 0 0.022 0s0.015 0 0.022 0c0.007 0 0.015 0 0.022 0s0.015 0 0.022 0c0.007 0 0.015 0 0.022 0s0.015 0 0.022 0c0.007 0 0.015 0 0.022 0s0.015 0 0.022 0c0.007 0 0.015 0 0.022 0s0.015 0 0.022 0c0.007 0 0.015 0 0.022 0s0.015 0 0.022 0c0.007 0 0.015 0 0.022 0s0.015 0 0.022 0c0.007 0 0.015 0 0.022 0s0.015 0 0.022 0c0.007 0 0.014 0 0.022 0s0.014 0 0.022 0c0.007 0 0.014 0 0.022 0s0.014 0 0.022 0 0.014 0 0.022 0 0.014 0 0.021 0 0.014 0 0.021 0 0.014 0 0.021 0 0.014 0 0.021 0 0.014 0 0.021 0c0.007 0 0.014 0 0.021 0s0.014 0 0.021 0c0.007 0 0.014 0 0.021 0s0.014 0 0.021 0c0.007 0 0.014 0 0.021 0s0.014 0 0.021 0c0.007 0 0.014 0 0.021 0s0.014 0 0.021 0c0.007 0 0.014 0 0.021 0s0.014 0 0.021 0c0.007 0 0.014 0 0.021 0s0.014 0 0.021 0c0.007 0 0.014 0 0.021 0s0.014 0 0.020 0 0.014 0 0.020 0 0.014 0 0.020 0 0.013 0 0.020 0 0.013 0 0.020 0c0.007 0 0.013 0 0.020 0s0.013 0 0.020 0c0.007 0 0.013 0 0.020 0s0.013 0 0.020 0c0.007 0 0.013 0 0.020 0s0.013 0 0.020 0c0.007 0 0.013 0 0.020 0s0.013 0 0.020 0c0.007 0 0.013 0 0.020 0s0.013 0 0.020 0 0.013 0 0.020 0 0.013 0 0.020 0 0.013 0 0.019 0 0.013 0 0.019 0c0.006 0 0.013 0 0.019 0s0.013 0 0.019 0c0.006 0 0.013 0 0.019 0s0.013 0 0.019 0c0.006 0 0.013 0 0.019 0s0.013 0 0.019 0c0.006 0 0.013 0 0.019 0s0.012 0 0.019 0c0.006 0 0.012 0 0.019 0s0.012 0 0.019 0 0.012 0 0.019 0 0.012 0 0.019 0c0.006 0 0.012 0 0.018 0s0.012 0 0.018 0c0.006 0 0.012 0 0.018 0s0.012 0 0.018 0 0.012 0 0.018 0 0.012 0 0.018 0 0.012 0 0.018 0 0.012 0 0.018 0c0.006 0 0.012 0 0.018 0s0.012 0 0.018 0c0.006 0 0.012 0 0.018 0s0.012 0 0.018 0c0.006 0 0.012 0 0.017 0s0.012 0 0.017 0c0.006 0 0.012 0 0.017 0s0.011 0 0.017 0 0.012 0 0.017 0 0.011 0 0.017 0 0.011 0 0.017 0 0.011 0 0.017 0c0.006 0 0.011 0 0.017 0s0.011 0 0.017 0c0.006 0 0.011 0 0.017 0s0.011 0 0.017 0 0.011 0 0.016 0 0.011 0 0.016 0c0.006 0 0.011 0 0.016 0s0.011 0 0.016 0c0.005 0 0.011 0 0.016 0s0.011 0 0.016 0c0.005 0 0.011 0 0.016 0s0.011 0 0.016 0 0.010 0 0.016 0 0.010 0 0.016 0 0.010 0 0.016 0 0.010 0 0.015 0c0.005 0 0.010 0 0.015 0s0.010 0 0.015 0 0.010 0 0.015 0 0.010 0 0.015 0c0.005 0 0.010 0 0.015 0s0.010 0 0.015 0c0.005 0 0.010 0 0.015 0s0.010 0 0.015 0c0.005 0 0.010 0 0.015 0s0.010 0 0.015 0c0.005 0 0.010 0 0.014 0s0.009 0 0.014 0c0.005 0 0.009 0 0.014 0s0.009 0 0.014 0 0.009 0 0.014 0 0.009 0 0.014 0 0.009 0 0.014 0 0.009 0 0.014 0 0.009 0 0.014 0 0.009 0 0.013 0c0.005 0 0.009 0 0.013 0s0.009 0 0.013 0c0.004 0 0.009 0 0.013 0s0.009 0 0.013 0c0.004 0 0.009 0 0.013 0s0.009 0 0.013 0c0.004 0 0.009 0 0.013 0s0.008 0 0.013 0c0.004 0 0.008 0 0.013 0s0.008 0 0.012 0 0.008 0 0.012 0 0.008 0 0.012 0 0.008 0 0.012 0 0.008 0 0.012 0c0.004 0 0.008 0 0.012 0s0.008 0 0.012 0c0.004 0 0.008 0 0.012 0s0.008 0 0.012 0c0.004 0 0.008 0 0.012 0s0.008 0 0.011 0 0.008 0 0.011 0 0.008 0 0.011 0c0.004 0 0.007 0 0.011 0s0.007 0 0.011 0 0.007 0 0.011 0 0.007 0 0.011 0c0.003 0 0.007 0 0.011 0s0.007 0 0.011 0c0.003 0 0.007 0 0.010 0s0.007 0 0.010 0c0.003 0 0.007 0 0.010 0s0.007 0 0.010 0 0.007 0 0.010 0 0.006 0 0.010 0 0.006 0 0.010 0 0.006 0 0.009 0 0.006 0 0.009 0 0.006 0 0.009 0c0.003 0 0.006 0 0.009 0s0.006 0 0.009 0c0.003 0 0.006 0 0.009 0s0.006 0 0.009 0c0.003 0 0.006 0 0.009 0s0.006 0 0.009 0 0.006 0 0.009 0 0.006 0 0.008 0v-1.901c-0.003 0-0.006 0-0.008 0s-0.006 0-0.009 0c-0.003 0-0.006 0-0.009 0s-0.006 0-0.009 0-0.006 0-0.009 0-0.006 0-0.009 0-0.006 0-0.009 0-0.006 0-0.009 0c-0.003 0-0.006 0-0.009 0s-0.006 0-0.009 0c-0.003 0-0.006 0-0.009 0s-0.006 0-0.010 0-0.006 0-0.010 0-0.007 0-0.010 0-0.007 0-0.010 0-0.007 0-0.010 0c-0.003 0-0.007 0-0.010 0s-0.007 0-0.010 0-0.007 0-0.011 0-0.007 0-0.011 0c-0.004 0-0.007 0-0.011 0s-0.007 0-0.011 0c-0.004 0-0.007 0-0.011 0s-0.007 0-0.011 0c-0.004 0-0.007 0-0.011 0s-0.007 0-0.011 0-0.008 0-0.011 0-0.008 0-0.012 0c-0.004 0-0.008 0-0.012 0s-0.008 0-0.012 0c-0.004 0-0.008 0-0.012 0s-0.008 0-0.012 0c-0.004 0-0.008 0-0.012 0s-0.008 0-0.012 0-0.008 0-0.012 0-0.008 0-0.012 0-0.008 0-0.012 0-0.008 0-0.013 0-0.008 0-0.013 0-0.009 0-0.013 0c-0.004 0-0.009 0-0.013 0s-0.009 0-0.013 0c-0.004 0-0.009 0-0.013 0s-0.009 0-0.013 0c-0.004 0-0.009 0-0.013 0s-0.009 0-0.013 0c-0.004 0-0.009 0-0.013 0s-0.009 0-0.014 0-0.009 0-0.014 0-0.009 0-0.014 0-0.009 0-0.014 0-0.009 0-0.014 0-0.009 0-0.014 0-0.009 0-0.014 0c-0.005 0-0.010 0-0.014 0s-0.010 0-0.014 0c-0.005 0-0.010 0-0.015 0s-0.010 0-0.015 0c-0.005 0-0.010 0-0.015 0s-0.010 0-0.015 0c-0.005 0-0.010 0-0.015 0s-0.010 0-0.015 0c-0.005 0-0.010 0-0.015 0s-0.010 0-0.015 0c-0.005 0-0.010 0-0.015 0s-0.010 0-0.015 0c-0.005 0-0.010 0-0.015 0s-0.010 0-0.016 0-0.010 0-0.016 0-0.010 0-0.016 0-0.011 0-0.016 0-0.011 0-0.016 0c-0.005 0-0.011 0-0.016 0s-0.011 0-0.016 0c-0.005 0-0.011 0-0.016 0s-0.011 0-0.016 0c-0.005 0-0.011 0-0.016 0s-0.011 0-0.016 0-0.011 0-0.017 0-0.011 0-0.017 0c-0.006 0-0.011 0-0.017 0s-0.011 0-0.017 0c-0.006 0-0.011 0-0.017 0s-0.011 0-0.017 0-0.011 0-0.017 0-0.012 0-0.017 0-0.011 0-0.017 0-0.012 0-0.017 0c-0.006 0-0.012 0-0.017 0s-0.012 0-0.017 0c-0.006 0-0.012 0-0.018 0s-0.012 0-0.018 0c-0.006 0-0.012 0-0.018 0s-0.012 0-0.018 0c-0.006 0-0.012 0-0.018 0s-0.012 0-0.018 0c-0.006 0-0.012 0-0.018 0s-0.012 0-0.018 0c-0.006 0-0.012 0-0.018 0s-0.012 0-0.018 0c-0.006 0-0.012 0-0.018 0s-0.012 0-0.018 0c-0.006 0-0.012 0-0.019 0s-0.012 0-0.019 0c-0.006 0-0.012 0-0.019 0s-0.012 0-0.019 0c-0.006 0-0.012 0-0.019 0s-0.012 0-0.019 0c-0.006 0-0.012 0-0.019 0s-0.013 0-0.019 0c-0.006 0-0.013 0-0.019 0s-0.013 0-0.019 0c-0.006 0-0.013 0-0.019 0s-0.013 0-0.019 0c-0.006 0-0.013 0-0.019 0s-0.013 0-0.019 0-0.013 0-0.020 0-0.013 0-0.020 0-0.013 0-0.020 0-0.013 0-0.020 0c-0.006 0-0.013 0-0.020 0s-0.013 0-0.020 0-0.013 0-0.020 0-0.013 0-0.020 0-0.013 0-0.020 0-0.013 0-0.020 0c-0.007 0-0.013 0-0.020 0s-0.013 0-0.020 0c-0.007 0-0.014 0-0.020 0s-0.013 0-0.020 0-0.014 0-0.020 0-0.013 0-0.020 0-0.014 0-0.020 0-0.014 0-0.021 0-0.014 0-0.021 0-0.014 0-0.021 0c-0.007 0-0.014 0-0.021 0s-0.014 0-0.021 0-0.014 0-0.021 0-0.014 0-0.021 0-0.014 0-0.021 0-0.014 0-0.021 0c-0.007 0-0.014 0-0.021 0s-0.014 0-0.021 0c-0.007 0-0.014 0-0.021 0s-0.014 0-0.021 0c-0.007 0-0.014 0-0.021 0s-0.014 0-0.021 0-0.014 0-0.021 0-0.014 0-0.021 0-0.014 0-0.021 0-0.014 0-0.022 0-0.014 0-0.022 0-0.014 0-0.022 0c-0.007 0-0.014 0-0.022 0s-0.015 0-0.022 0c-0.007 0-0.015 0-0.022 0s-0.014 0-0.022 0-0.015 0-0.022 0-0.015 0-0.022 0-0.015 0-0.022 0-0.015 0-0.022 0c-0.007 0-0.015 0-0.022 0s-0.015 0-0.022 0c-0.007 0-0.015 0-0.022 0s-0.015 0-0.022 0c-0.007 0-0.015 0-0.022 0s-0.015 0-0.022 0-0.015 0-0.022 0-0.015 0-0.022 0-0.015 0-0.022 0-0.015 0-0.022 0c-0.008 0-0.015 0-0.023 0s-0.015 0-0.023 0c-0.008 0-0.015 0-0.023 0s-0.015 0-0.023 0c-0.007 0-0.015 0-0.023 0s-0.015 0-0.023 0c-0.007 0-0.015 0-0.023 0s-0.015 0-0.023 0c-0.008 0-0.015 0-0.023 0s-0.015 0-0.023 0c-0.008 0-0.015 0-0.023 0s-0.015 0-0.023 0c-0.008 0-0.015 0-0.023 0s-0.015 0-0.023 0c-0.008 0-0.015 0-0.023 0s-0.015 0-0.023 0c-0.008 0-0.015 0-0.023 0s-0.015 0-0.023 0-0.015 0-0.023 0-0.015 0-0.023 0-0.015 0-0.023 0-0.016 0-0.023 0c-0.008 0-0.016 0-0.023 0s-0.016 0-0.023 0c-0.008 0-0.016 0-0.023 0s-0.016 0-0.023 0c-0.008 0-0.016 0-0.023 0s-0.016 0-0.023 0c-0.008 0-0.016 0-0.023 0s-0.016 0-0.023 0c-0.008 0-0.016 0-0.023 0s-0.016 0-0.023 0c-0.008 0-0.016 0-0.024 0s-0.016 0-0.023 0c-0.008 0-0.016 0-0.024 0s-0.016 0-0.024 0c-0.008 0-0.016 0-0.023 0s-0.016 0-0.024 0c-0.008 0-0.016 0-0.024 0s-0.016 0-0.024 0-0.016 0-0.024 0-0.016 0-0.024 0-0.016 0-0.024 0-0.016 0-0.024 0-0.016 0-0.024 0-0.016 0-0.024 0-0.016 0-0.024 0-0.016 0-0.024 0-0.016 0-0.024 0-0.016 0-0.024 0-0.016 0-0.024 0-0.016 0-0.024 0c-0.008 0-0.016 0-0.024 0s-0.016 0-0.024 0c-0.008 0-0.016 0-0.024 0s-0.016 0-0.024 0c-0.008 0-0.016 0-0.024 0s-0.016 0-0.024 0-0.016 0-0.024 0-0.016 0-0.024 0c-0.008 0-0.016 0-0.024 0s-0.016 0-0.024 0c-0.008 0-0.016 0-0.024 0s-0.016 0-0.024 0c-0.008 0-0.016 0-0.024 0s-0.016 0-0.024 0c-0.008 0-0.016 0-0.024 0s-0.016 0-0.024 0c-0.008 0-0.016 0-0.024 0s-0.016 0-0.024 0c-0.008 0-0.016 0-0.024 0s-0.016 0-0.024 0c-0.008 0-0.016 0-0.024 0s-0.016 0-0.024 0c-0.008 0-0.016 0-0.024 0s-0.016 0-0.024 0c-0.008 0-0.016 0-0.024 0s-0.016 0-0.024 0c-0.008 0-0.016 0-0.024 0s-0.016 0-0.024 0c-0.008 0-0.016 0-0.024 0s-0.016 0-0.024 0c-0.008 0-0.016 0-0.024 0s-0.016 0-0.024 0c-0.008 0-0.016 0-0.024 0s-0.016 0-0.024 0c-0.008 0-0.016 0-0.024 0s-0.016 0-0.024 0c-0.008 0-0.016 0-0.024 0s-0.016 0-0.024 0c-0.008 0-0.016 0-0.024 0s-0.016 0-0.024 0c-0.008 0-0.016 0-0.024 0s-0.016 0-0.024 0c-0.008 0-0.016 0-0.024 0s-0.016 0-0.024 0c-0.008 0-0.016 0-0.024 0s-0.016 0-0.024 0c-0.008 0-0.016 0-0.024 0s-0.016 0-0.024 0c-0.008 0-0.016 0-0.024 0s-0.016 0-0.024 0c-0.008 0-0.016 0-0.024 0s-0.016 0-0.024 0c-0.008 0-0.016 0-0.024 0s-0.016 0-0.024 0c-0.008 0-0.016 0-0.024 0s-0.016 0-0.024 0c-0.008 0-0.016 0-0.024 0s-0.016 0-0.024 0c-0.008 0-0.016 0-0.024 0s-0.016 0-0.024 0c-0.008 0-0.016 0-0.024 0s-0.016 0-0.024 0c-0.008 0-0.016 0-0.024 0s-0.016 0-0.024 0c-0.008 0-0.016 0-0.024 0s-0.016 0-0.024 0c-0.008 0-0.016 0-0.024 0s-0.016 0-0.024 0c-0.008 0-0.016 0-0.024 0s-0.016 0-0.024 0c-0.008 0-0.016 0-0.024 0s-0.016 0-0.024 0c-0.008 0-0.016 0-0.024 0s-0.016 0-0.024 0c-0.008 0-0.016 0-0.024 0s-0.016 0-0.024 0c-0.008 0-0.016 0-0.024 0s-0.016 0-0.024 0c-0.008 0-0.016 0-0.024 0s-0.016 0-0.024 0c-0.008 0-0.016 0-0.024 0s-0.016 0-0.024 0c-0.008 0-0.016 0-0.024 0s-0.016 0-0.024 0c-0.008 0-0.016 0-0.023 0s-0.016 0-0.023 0c-0.008 0-0.016 0-0.023 0s-0.016 0-0.023 0c-0.008 0-0.016 0-0.023 0s-0.016 0-0.023 0c-0.008 0-0.016 0-0.023 0s-0.016 0-0.023 0c-0.008 0-0.015 0-0.023 0s-0.015 0-0.023 0c-0.008 0-0.015 0-0.023 0s-0.015 0-0.023 0c-0.008 0-0.015 0-0.023 0s-0.015 0-0.023 0c-0.008 0-0.015 0-0.023 0s-0.015 0-0.023 0c-0.008 0-0.015 0-0.023 0s-0.015 0-0.023 0c-0.008 0-0.015 0-0.023 0s-0.015 0-0.023 0c-0.008 0-0.015 0-0.023 0s-0.015 0-0.023 0c-0.008 0-0.015 0-0.023 0s-0.015 0-0.023 0c-0.008 0-0.015 0-0.023 0s-0.015 0-0.023 0c-0.008 0-0.015 0-0.023 0s-0.015 0-0.023 0c-0.008 0-0.015 0-0.023 0s-0.015 0-0.023 0c-0.008 0-0.015 0-0.023 0s-0.015 0-0.022 0c-0.007 0-0.015 0-0.022 0s-0.015 0-0.022 0c-0.007 0-0.015 0-0.022 0s-0.015 0-0.022 0c-0.007 0-0.015 0-0.022 0s-0.015 0-0.022 0c-0.007 0-0.015 0-0.022 0s-0.015 0-0.022 0c-0.007 0-0.015 0-0.022 0s-0.015 0-0.022 0c-0.007 0-0.015 0-0.022 0s-0.015 0-0.022 0c-0.007 0-0.015 0-0.022 0s-0.015 0-0.022 0c-0.007 0-0.015 0-0.022 0s-0.014 0-0.022 0c-0.007 0-0.014 0-0.022 0s-0.014 0-0.022 0c-0.007 0-0.014 0-0.022 0s-0.014 0-0.022 0c-0.007 0-0.014 0-0.021 0s-0.014 0-0.021 0c-0.007 0-0.014 0-0.021 0s-0.014 0-0.021 0c-0.007 0-0.014 0-0.021 0s-0.014 0-0.021 0c-0.007 0-0.014 0-0.021 0s-0.014 0-0.021 0c-0.007 0-0.014 0-0.021 0s-0.014 0-0.021 0c-0.007 0-0.014 0-0.021 0s-0.014 0-0.021 0c-0.007 0-0.014 0-0.021 0s-0.014 0-0.021 0c-0.007 0-0.014 0-0.021 0s-0.014 0-0.021 0c-0.007 0-0.014 0-0.021 0s-0.014 0-0.021 0c-0.007 0-0.014 0-0.021 0s-0.014 0-0.020 0c-0.007 0-0.014 0-0.020 0s-0.014 0-0.020 0c-0.007 0-0.014 0-0.020 0s-0.013 0-0.020 0c-0.007 0-0.013 0-0.020 0s-0.013 0-0.020 0c-0.007 0-0.013 0-0.020 0s-0.013 0-0.020 0c-0.007 0-0.013 0-0.020 0s-0.013 0-0.020 0c-0.007 0-0.013 0-0.020 0s-0.013 0-0.020 0c-0.007 0-0.013 0-0.020 0s-0.013 0-0.020 0c-0.007 0-0.013 0-0.020 0s-0.013 0-0.019 0c-0.006 0-0.013 0-0.019 0s-0.013 0-0.019 0c-0.006 0-0.013 0-0.019 0s-0.013 0-0.019 0c-0.006 0-0.013 0-0.019 0s-0.013 0-0.019 0c-0.006 0-0.013 0-0.019 0s-0.013 0-0.019 0c-0.006 0-0.013 0-0.019 0s-0.012 0-0.019 0c-0.006 0-0.012 0-0.019 0s-0.012 0-0.019 0c-0.006 0-0.012 0-0.019 0s-0.012 0-0.018 0c-0.006 0-0.012 0-0.018 0s-0.012 0-0.018 0c-0.006 0-0.012 0-0.018 0s-0.012 0-0.018 0c-0.006 0-0.012 0-0.018 0s-0.012 0-0.018 0c-0.006 0-0.012 0-0.018 0s-0.012 0-0.018 0c-0.006 0-0.012 0-0.018 0s-0.012 0-0.018 0c-0.006 0-0.012 0-0.018 0s-0.012 0-0.018 0c-0.006 0-0.012 0-0.017 0s-0.012 0-0.017 0c-0.006 0-0.012 0-0.017 0s-0.011 0-0.017 0c-0.006 0-0.011 0-0.017 0s-0.011 0-0.017 0c-0.006 0-0.011 0-0.017 0s-0.011 0-0.017 0c-0.006 0-0.011 0-0.017 0s-0.011 0-0.017 0c-0.006 0-0.011 0-0.017 0s-0.011 0-0.017 0c-0.005 0-0.011 0-0.016 0s-0.011 0-0.016 0c-0.005 0-0.011 0-0.016 0s-0.011 0-0.016 0c-0.005 0-0.011 0-0.016 0s-0.011 0-0.016 0c-0.005 0-0.011 0-0.016 0s-0.011 0-0.016 0c-0.005 0-0.011 0-0.016 0s-0.010 0-0.016 0c-0.005 0-0.010 0-0.016 0s-0.010 0-0.015 0c-0.005 0-0.010 0-0.015 0s-0.010 0-0.015 0c-0.005 0-0.010 0-0.015 0s-0.010 0-0.015 0c-0.005 0-0.010 0-0.015 0s-0.010 0-0.015 0c-0.005 0-0.010 0-0.015 0s-0.010 0-0.015 0c-0.005 0-0.010 0-0.015 0s-0.010 0-0.015 0c-0.005 0-0.010 0-0.014 0s-0.010 0-0.014 0c-0.005 0-0.010 0-0.014 0s-0.009 0-0.014 0c-0.005 0-0.009 0-0.014 0s-0.009 0-0.014 0c-0.005 0-0.009 0-0.014 0s-0.009 0-0.014 0c-0.005 0-0.009 0-0.014 0s-0.009 0-0.014 0c-0.005 0-0.009 0-0.013 0s-0.009 0-0.013 0c-0.004 0-0.009 0-0.013 0s-0.009 0-0.013 0c-0.004 0-0.009 0-0.013 0s-0.009 0-0.013 0c-0.004 0-0.009 0-0.013 0s-0.008 0-0.013 0c-0.004 0-0.008 0-0.013 0s-0.008 0-0.013 0c-0.004 0-0.008 0-0.012 0s-0.008 0-0.012 0c-0.004 0-0.008 0-0.012 0s-0.008 0-0.012 0c-0.004 0-0.008 0-0.012 0s-0.008 0-0.012 0c-0.004 0-0.008 0-0.012 0s-0.008 0-0.012 0c-0.004 0-0.008 0-0.012 0s-0.008 0-0.011 0c-0.004 0-0.008 0-0.011 0s-0.008 0-0.011 0c-0.004 0-0.007 0-0.011 0s-0.007 0-0.011 0c-0.004 0-0.007 0-0.011 0s-0.007 0-0.011 0c-0.004 0-0.007 0-0.011 0s-0.007 0-0.011 0c-0.004 0-0.007 0-0.010 0s-0.007 0-0.010 0c-0.003 0-0.007 0-0.010 0s-0.007 0-0.010 0c-0.003 0-0.007 0-0.010 0s-0.007 0-0.010 0c-0.003 0-0.007 0-0.010 0s-0.006 0-0.010 0c-0.003 0-0.006 0-0.009 0s-0.006 0-0.009 0c-0.003 0-0.006 0-0.009 0s-0.006 0-0.009 0c-0.003 0-0.006 0-0.009 0s-0.006 0-0.009 0c-0.003 0-0.006 0-0.009 0s-0.006 0-0.009 0c-0.003 0-0.006 0-0.009 0s-0.006 0-0.008 0v1.901zM19.723 28.356v3.644h1.901v-3.644h-1.901zM18.116 23.247l-0.058-0.041-1.094 1.555 0.058 0.041 1.094-1.555zM24.238 19.010h-3.089v1.901h3.089v-1.901zM16.238 19.010h-8.792v1.901h8.792v-1.901zM7.446 19.010c-0.286 0-0.456-0.057-0.556-0.109s-0.167-0.119-0.221-0.199c-0.123-0.183-0.164-0.425-0.172-0.568l-1.898 0.108c0.016 0.284 0.092 0.928 0.495 1.525 0.446 0.659 1.214 1.144 2.352 1.144v-1.901zM6.496 17.98c0.008-0.154 0.050-0.422 0.181-0.625 0.058-0.090 0.129-0.161 0.226-0.214s0.262-0.111 0.543-0.111v-1.901c-1.161 0-1.93 0.518-2.366 1.196-0.395 0.612-0.466 1.27-0.481 1.556l1.898 0.099zM24.238 17.030c0.281 0 0.446 0.058 0.543 0.111s0.168 0.125 0.226 0.214c0.131 0.203 0.173 0.471 0.181 0.625l1.898-0.099c-0.015-0.286-0.087-0.944-0.481-1.556-0.437-0.678-1.206-1.196-2.366-1.196v1.901zM25.187 18.134c-0.008 0.143-0.049 0.385-0.172 0.568-0.054 0.080-0.123 0.147-0.221 0.199s-0.27 0.109-0.556 0.109v1.901c1.138 0 1.906-0.485 2.352-1.144 0.404-0.597 0.479-1.241 0.496-1.525l-1.898-0.108zM15.842 13.149c1.491 0 5.077-0.16 7.969-3.14l-1.364-1.324c-2.335 2.406-5.245 2.563-6.605 2.563v1.901zM23.129 9.347c0.783-0.539 0.783-0.54 0.782-0.54s-0-0.001-0.001-0.001-0.001-0.001-0.001-0.002-0.002-0.003-0.003-0.005-0.006-0.008-0.009-0.013-0.017-0.024-0.030-0.041c-0.025-0.034-0.060-0.080-0.105-0.138-0.090-0.114-0.219-0.272-0.389-0.459-0.339-0.373-0.841-0.867-1.507-1.365-1.333-0.997-3.338-2.023-5.994-2.11l-0.062 1.9c2.176 0.071 3.815 0.907 4.917 1.732 0.552 0.413 0.966 0.82 1.238 1.12 0.136 0.15 0.236 0.272 0.3 0.353 0.032 0.041 0.054 0.071 0.068 0.089 0.007 0.009 0.011 0.015 0.013 0.018 0.001 0.002 0.002 0.002 0.001 0.002s-0-0-0.001-0.001-0-0.001-0.001-0.001-0-0-0-0.001-0-0.001 0.782-0.54zM7.872 10.009c2.893 2.98 6.478 3.14 7.969 3.14v-1.901c-1.36 0-4.27-0.157-6.605-2.563l-1.364 1.324zM15.81 4.674c-2.655 0.087-4.66 1.112-5.994 2.11-0.666 0.498-1.168 0.992-1.507 1.365-0.17 0.187-0.299 0.345-0.389 0.459-0.045 0.057-0.080 0.104-0.104 0.138-0.012 0.017-0.022 0.031-0.030 0.041-0.004 0.005-0.007 0.010-0.009 0.013-0.001 0.002-0.002 0.003-0.003 0.005s-0.001 0.001-0.001 0.002-0 0.001-0.001 0.001-0 0.001 0.782 0.54 0.783 0.54 0.782 0.54-0 0-0 0.001-0 0.001-0.001 0.001-0.001 0.001-0.001 0.001 0-0.001 0.001-0.002 0.007-0.009 0.013-0.018c0.013-0.018 0.036-0.049 0.068-0.089 0.064-0.081 0.164-0.203 0.3-0.353 0.273-0.3 0.686-0.708 1.238-1.12 1.102-0.825 2.741-1.661 4.917-1.732l-0.062-1.9zM8.396 16.079c0-1.040-0.078-2.090 0.017-3.228 0.092-1.106 0.344-2.126 0.923-2.964l-1.563-1.082c-0.846 1.222-1.149 2.617-1.255 3.888-0.103 1.238-0.023 2.524-0.023 3.386h1.901zM6.495 19.96c0 1.876-0.101 3.532-0.042 4.736 0.062 1.258 0.298 2.409 1.192 3.303l1.344-1.344c-0.384-0.384-0.583-0.936-0.637-2.051-0.057-1.17 0.044-2.559 0.044-4.643h-1.901zM7.645 27.999c1.028 1.028 2.337 1.308 3.365 1.308v-1.901c-0.715 0-1.465-0.195-2.021-0.751l-1.344 1.344zM7.446 17.030h8.396v-1.901h-8.396v1.901zM15.842 17.030h8.396v-1.901h-8.396v1.901zM11.010 29.307h9.663v-1.901h-9.663v1.901zM25.187 17.98c0.003 0.054 0.003 0.105-0 0.155l1.898 0.108c0.007-0.123 0.007-0.244 0-0.362l-1.898 0.099zM6.496 18.134c-0.003-0.049-0.003-0.101-0-0.155l-1.898-0.099c-0.006 0.118-0.006 0.239 0.001 0.362l1.898-0.108zM17.584 20.356c0-0.744-0.603-1.347-1.347-1.347v1.901c-0.306 0-0.554-0.248-0.554-0.554h1.901zM15.683 22.294c0 0.982 0.478 1.902 1.28 2.467l1.094-1.555c-0.297-0.209-0.474-0.549-0.474-0.912h-1.901zM17.022 24.802c1.058 0.744 2.48 0.704 3.494-0.099l-1.18-1.49c-0.354 0.28-0.851 0.294-1.22 0.034l-1.094 1.555zM19.723 22.413c0 0.312-0.142 0.606-0.387 0.8l1.18 1.49c0.7-0.554 1.108-1.398 1.108-2.29h-1.901zM21.624 20.436c0 0.262-0.213 0.475-0.475 0.475v-1.901c-0.788 0-1.426 0.638-1.426 1.426h1.901z"></path>
    </symbol>
    <symbol id="arrow-right_1" viewBox="0 0 32 32">
      <path d="M16.222 3.867c-1.008 1.008-1.008 2.637 0 3.645l5.911 5.911h-19.555c-1.423 0-2.578 1.155-2.578 2.578s1.155 2.578 2.578 2.578h19.555l-5.911 5.911c-1.008 1.008-1.008 2.637 0 3.645 0.503 0.503 1.163 0.755 1.822 0.755s1.32-0.253 1.822-0.755l12.133-12.133-12.133-12.133c-1.008-1.008-2.637-1.008-3.645 0z"></path>
      </symbol>
  </defs>
</svg>
