<svg xmlns="http://www.w3.org/2000/svg" version="1.1" xmlns:xlink="http://www.w3.org/1999/xlink" xmlns:svgjs="http://svgjs.com/svgjs" width="200" height="202"><svg width="200" height="202" viewBox="0 0 200 202" fill="none" xmlns="http://www.w3.org/2000/svg">
<circle cx="100" cy="100" r="100" fill="#D41443"></circle>
<path d="M100 35.5L100.197 29.5032L100 29.4968L99.8034 29.5032L100 35.5ZM164.985 113.184L158.994 113.497L164.985 113.184ZM164.984 114.814L170.974 115.155L164.984 114.814ZM110.536 151.396L107.083 156.303L110.536 151.396ZM130.5 185C136.989 185 145.253 183.232 151.743 176.743L143.257 168.257C139.747 171.768 135.011 173 130.5 173V185ZM151.743 176.743C157.382 171.103 158.876 163.839 159.265 155.896C159.638 148.296 159 137.843 159 126H147C147 139.157 147.642 147.924 147.28 155.309C146.934 162.351 145.678 165.837 143.257 168.257L151.743 176.743ZM124.5 129V141.483H136.5V129H124.5ZM111 140.731V128.5H99V140.731H111ZM159 101.5C159 96.0621 159.506 87.9415 158.854 80.1267C158.186 72.1058 156.273 63.2984 150.933 55.5847L141.067 62.4152C144.727 67.7016 146.314 74.1442 146.896 81.1233C147.495 88.3086 147 94.938 147 101.5H159ZM63.5 179V202H75.5V179H63.5ZM69.5 185C69.5176 185 69.5353 185 69.5531 185C69.571 185 69.5889 185 69.607 185C69.6251 185 69.6433 185 69.6617 185C69.68 185 69.6985 185 69.7171 185C69.7357 185 69.7545 185 69.7733 185C69.7922 185 69.8112 185 69.8303 185C69.8494 185 69.8687 185 69.888 185C69.9074 185 69.9269 185 69.9465 185C69.9661 185 69.9859 185 70.0058 185C70.0256 185 70.0456 185 70.0657 185C70.0859 185 70.1061 185 70.1265 185C70.1469 185 70.1673 185 70.188 185C70.2086 185 70.2293 185 70.2502 185C70.2711 185 70.292 185 70.3132 185C70.3343 185 70.3555 185 70.3768 185C70.3982 185 70.4197 185 70.4413 185C70.4629 185 70.4846 185 70.5064 185C70.5283 185 70.5502 185 70.5723 185C70.5944 185 70.6166 185 70.6389 185C70.6613 185 70.6837 185 70.7063 185C70.7288 185 70.7515 185 70.7743 185C70.7971 185 70.82 185 70.8431 185C70.8661 185 70.8893 185 70.9126 185C70.9358 185 70.9592 185 70.9827 185C71.0063 185 71.0299 185 71.0536 185C71.0774 185 71.1012 185 71.1252 185C71.1492 185 71.1733 185 71.1975 185C71.2217 185 71.246 185 71.2705 185C71.2949 185 71.3195 185 71.3442 185C71.3688 185 71.3936 185 71.4185 185C71.4434 185 71.4685 185 71.4936 185C71.5187 185 71.544 185 71.5693 185C71.5947 185 71.6202 185 71.6458 185C71.6713 185 71.697 185 71.7229 185C71.7487 185 71.7746 185 71.8006 185C71.8267 185 71.8528 185 71.8791 185C71.9053 185 71.9317 185 71.9582 185C71.9847 185 72.0113 185 72.038 185C72.0647 185 72.0915 185 72.1184 185C72.1453 185 72.1724 185 72.1995 185C72.2266 185 72.2539 185 72.2813 185C72.3086 185 72.3361 185 72.3637 185C72.3913 185 72.4189 185 72.4467 185C72.4745 185 72.5024 185 72.5304 185C72.5585 185 72.5866 185 72.6148 185C72.643 185 72.6714 185 72.6998 185C72.7282 185 72.7568 185 72.7854 185C72.8141 185 72.8428 185 72.8717 185C72.9006 185 72.9295 185 72.9586 185C72.9877 185 73.0169 185 73.0461 185C73.0754 185 73.1048 185 73.1343 185C73.1638 185 73.1934 185 73.2231 185C73.2528 185 73.2826 185 73.3125 185C73.3424 185 73.3724 185 73.4025 185C73.4326 185 73.4628 185 73.4931 185C73.5234 185 73.5538 185 73.5844 185C73.6149 185 73.6455 185 73.6762 185C73.7069 185 73.7377 185 73.7687 185C73.7996 185 73.8306 185 73.8617 185C73.8928 185 73.9241 185 73.9554 185C73.9867 185 74.0181 185 74.0496 185C74.0811 185 74.1128 185 74.1445 185C74.1762 185 74.208 185 74.2399 185C74.2718 185 74.3038 185 74.3359 185C74.368 185 74.4002 185 74.4325 185C74.4648 185 74.4972 185 74.5297 185C74.5622 185 74.5948 185 74.6275 185C74.6602 185 74.693 185 74.7258 185C74.7587 185 74.7917 185 74.8247 185C74.8578 185 74.891 185 74.9242 185C74.9575 185 74.9908 185 75.0243 185C75.0577 185 75.0912 185 75.1249 185C75.1585 185 75.1922 185 75.226 185C75.2598 185 75.2937 185 75.3277 185C75.3617 185 75.3958 185 75.43 185C75.4642 185 75.4985 185 75.5328 185C75.5672 185 75.6017 185 75.6362 185C75.6708 185 75.7054 185 75.7401 185C75.7749 185 75.8097 185 75.8446 185C75.8795 185 75.9145 185 75.9496 185C75.9847 185 76.0198 185 76.0551 185C76.0904 185 76.1257 185 76.1612 185C76.1966 185 76.2321 185 76.2678 185C76.3034 185 76.3391 185 76.3749 185C76.4107 185 76.4466 185 76.4825 185C76.5185 185 76.5545 185 76.5907 185C76.6268 185 76.663 185 76.6994 185C76.7357 185 76.7721 185 76.8085 185C76.845 185 76.8816 185 76.9182 185C76.9549 185 76.9916 185 77.0285 185C77.0653 185 77.1022 185 77.1392 185C77.1762 185 77.2132 185 77.2504 185C77.2875 185 77.3248 185 77.3621 185C77.3994 185 77.4368 185 77.4743 185C77.5118 185 77.5494 185 77.587 185C77.6247 185 77.6624 185 77.7002 185C77.738 185 77.7759 185 77.8139 185C77.8518 185 77.8899 185 77.928 185C77.9662 185 78.0044 185 78.0427 185C78.081 185 78.1193 185 78.1578 185C78.1962 185 78.2348 185 78.2734 185C78.312 185 78.3507 185 78.3894 185C78.4282 185 78.4671 185 78.506 185C78.5449 185 78.5839 185 78.623 185C78.662 185 78.7012 185 78.7404 185C78.7797 185 78.819 185 78.8583 185C78.8977 185 78.9372 185 78.9767 185C79.0162 185 79.0559 185 79.0955 185C79.1352 185 79.175 185 79.2148 185C79.2547 185 79.2946 185 79.3345 185C79.3745 185 79.4146 185 79.4547 185C79.4948 185 79.535 185 79.5753 185C79.6156 185 79.6559 185 79.6964 185C79.7368 185 79.7773 185 79.8178 185C79.8584 185 79.899 185 79.9398 185C79.9805 185 80.0212 185 80.0621 185C80.1029 185 80.1439 185 80.1849 185C80.2258 185 80.2669 185 80.308 185C80.3492 185 80.3904 185 80.4317 185C80.4729 185 80.5143 185 80.5557 185C80.5971 185 80.6386 185 80.6801 185C80.7217 185 80.7633 185 80.805 185C80.8466 185 80.8884 185 80.9302 185C80.972 185 81.0139 185 81.0559 185C81.0978 185 81.1399 185 81.1819 185C81.224 185 81.2662 185 81.3084 185C81.3506 185 81.3929 185 81.4353 185C81.4776 185 81.52 185 81.5625 185C81.605 185 81.6475 185 81.6901 185C81.7327 185 81.7754 185 81.8182 185C81.8609 185 81.9037 185 81.9466 185C81.9894 185 82.0324 185 82.0753 185C82.1183 185 82.1614 185 82.2045 185C82.2476 185 82.2908 185 82.334 185C82.3773 185 82.4206 185 82.4639 185C82.5073 185 82.5507 185 82.5942 185C82.6377 185 82.6813 185 82.7249 185C82.7685 185 82.8121 185 82.8559 185C82.8996 185 82.9434 185 82.9872 185C83.0311 185 83.075 185 83.1189 185C83.1629 185 83.2069 185 83.251 185C83.2951 185 83.3392 185 83.3834 185C83.4276 185 83.4719 185 83.5162 185C83.5605 185 83.6049 185 83.6493 185C83.6937 185 83.7382 185 83.7827 185C83.8273 185 83.8719 185 83.9165 185C83.9612 185 84.0059 185 84.0506 185C84.0954 185 84.1402 185 84.1851 185C84.23 185 84.2749 185 84.3199 185C84.3649 185 84.4099 185 84.455 185C84.5001 185 84.5452 185 84.5904 185C84.6356 185 84.6808 185 84.7261 185C84.7715 185 84.8168 185 84.8622 185C84.9076 185 84.9531 185 84.9986 185C85.0441 185 85.0897 185 85.1353 185C85.1809 185 85.2265 185 85.2723 185C85.318 185 85.3637 185 85.4096 185C85.4554 185 85.5012 185 85.5472 185C85.5931 185 85.639 185 85.6851 185C85.7311 185 85.7771 185 85.8232 185C85.8694 185 85.9155 185 85.9617 185C86.0079 185 86.0542 185 86.1005 185C86.1468 185 86.1931 185 86.2395 185C86.2859 185 86.3324 185 86.3789 185C86.4254 185 86.4719 185 86.5185 185C86.5651 185 86.6117 185 86.6584 185C86.7051 185 86.7518 185 86.7986 185C86.8453 185 86.8922 185 86.939 185C86.9859 185 87.0328 185 87.0797 185C87.1267 185 87.1737 185 87.2207 185C87.2677 185 87.3148 185 87.3619 185C87.409 185 87.4562 185 87.5034 185C87.5506 185 87.5979 185 87.6452 185C87.6924 185 87.7398 185 87.7872 185C87.8345 185 87.8819 185 87.9294 185C87.9769 185 88.0244 185 88.0719 185C88.1194 185 88.167 185 88.2146 185C88.2623 185 88.3099 185 88.3576 185C88.4053 185 88.4531 185 88.5008 185C88.5486 185 88.5964 185 88.6443 185C88.6921 185 88.74 185 88.788 185C88.8359 185 88.8839 185 88.9319 185C88.9799 185 89.0279 185 89.076 185C89.1241 185 89.1722 185 89.2204 185C89.2685 185 89.3167 185 89.3649 185C89.4132 185 89.4614 185 89.5097 185C89.558 185 89.6063 185 89.6547 185C89.7031 185 89.7515 185 89.7999 185C89.8484 185 89.8968 185 89.9453 185C89.9939 185 90.0424 185 90.091 185C90.1395 185 90.1882 185 90.2368 185C90.2854 185 90.3341 185 90.3828 185C90.4315 185 90.4803 185 90.529 185C90.5778 185 90.6266 185 90.6754 185C90.7243 185 90.7731 185 90.822 185C90.8709 185 90.9199 185 90.9688 185C91.0178 185 91.0668 185 91.1158 185C91.1648 185 91.2138 185 91.2629 185C91.312 185 91.3611 185 91.4102 185C91.4594 185 91.5085 185 91.5577 185C91.6069 185 91.6561 185 91.7054 185C91.7546 185 91.8039 185 91.8532 185C91.9025 185 91.9519 185 92.0012 185C92.0506 185 92.1 185 92.1494 185C92.1988 185 92.2482 185 92.2977 185C92.3471 185 92.3966 185 92.4461 185C92.4957 185 92.5452 185 92.5948 185C92.6443 185 92.6939 185 92.7435 185C92.7931 185 92.8428 185 92.8924 185C92.9421 185 92.9918 185 93.0415 185C93.0912 185 93.1409 185 93.1907 185C93.2405 185 93.2902 185 93.34 185C93.3898 185 93.4397 185 93.4895 185C93.5393 185 93.5892 185 93.6391 185C93.689 185 93.7389 185 93.7888 185C93.8388 185 93.8887 185 93.9387 185C93.9886 185 94.0386 185 94.0886 185C94.1387 185 94.1887 185 94.2387 185C94.2888 185 94.3389 185 94.3889 185C94.439 185 94.4891 185 94.5393 185C94.5894 185 94.6395 185 94.6897 185C94.7399 185 94.79 185 94.8402 185C94.8904 185 94.9406 185 94.9909 185C95.0411 185 95.0913 185 95.1416 185C95.1919 185 95.2421 185 95.2924 185C95.3427 185 95.393 185 95.4434 185C95.4937 185 95.544 185 95.5944 185C95.6447 185 95.6951 185 95.7455 185C95.7959 185 95.8463 185 95.8967 185C95.9471 185 95.9975 185 96.048 185C96.0984 185 96.1489 185 96.1993 185C96.2498 185 96.3003 185 96.3508 185C96.4012 185 96.4517 185 96.5023 185C96.5528 185 96.6033 185 96.6538 185C96.7044 185 96.7549 185 96.8055 185C96.856 185 96.9066 185 96.9572 185C97.0078 185 97.0583 185 97.1089 185C97.1595 185 97.2102 185 97.2608 185C97.3114 185 97.362 185 97.4126 185C97.4633 185 97.5139 185 97.5646 185C97.6152 185 97.6659 185 97.7166 185C97.7672 185 97.8179 185 97.8686 185C97.9193 185 97.97 185 98.0206 185C98.0713 185 98.122 185 98.1728 185C98.2235 185 98.2742 185 98.3249 185C98.3756 185 98.4263 185 98.4771 185C98.5278 185 98.5785 185 98.6293 185C98.68 185 98.7308 185 98.7815 185C98.8323 185 98.883 185 98.9338 185C98.9845 185 99.0353 185 99.0861 185C99.1368 185 99.1876 185 99.2383 185C99.2891 185 99.3399 185 99.3907 185C99.4414 185 99.4922 185 99.543 185C99.5938 185 99.6445 185 99.6953 185C99.7461 185 99.7969 185 99.8477 185C99.8984 185 99.9492 185 100 185C100.051 185 100.102 185 100.152 185C100.203 185 100.254 185 100.305 185C100.355 185 100.406 185 100.457 185C100.508 185 100.559 185 100.609 185C100.66 185 100.711 185 100.762 185C100.812 185 100.863 185 100.914 185C100.965 185 101.015 185 101.066 185C101.117 185 101.168 185 101.218 185C101.269 185 101.32 185 101.371 185C101.421 185 101.472 185 101.523 185C101.574 185 101.624 185 101.675 185C101.726 185 101.777 185 101.827 185C101.878 185 101.929 185 101.979 185C102.03 185 102.081 185 102.131 185C102.182 185 102.233 185 102.283 185C102.334 185 102.385 185 102.435 185C102.486 185 102.537 185 102.587 185C102.638 185 102.689 185 102.739 185C102.79 185 102.84 185 102.891 185C102.942 185 102.992 185 103.043 185C103.093 185 103.144 185 103.195 185C103.245 185 103.296 185 103.346 185C103.397 185 103.447 185 103.498 185C103.548 185 103.599 185 103.649 185C103.7 185 103.75 185 103.801 185C103.851 185 103.902 185 103.952 185C104.002 185 104.053 185 104.103 185C104.154 185 104.204 185 104.255 185C104.305 185 104.355 185 104.406 185C104.456 185 104.506 185 104.557 185C104.607 185 104.657 185 104.708 185C104.758 185 104.808 185 104.858 185C104.909 185 104.959 185 105.009 185C105.059 185 105.11 185 105.16 185C105.21 185 105.26 185 105.31 185C105.36 185 105.411 185 105.461 185C105.511 185 105.561 185 105.611 185C105.661 185 105.711 185 105.761 185C105.811 185 105.861 185 105.911 185C105.961 185 106.011 185 106.061 185C106.111 185 106.161 185 106.211 185C106.261 185 106.311 185 106.361 185C106.411 185 106.461 185 106.511 185C106.56 185 106.61 185 106.66 185C106.71 185 106.76 185 106.809 185C106.859 185 106.909 185 106.959 185C107.008 185 107.058 185 107.108 185C107.157 185 107.207 185 107.256 185C107.306 185 107.356 185 107.405 185C107.455 185 107.504 185 107.554 185C107.603 185 107.653 185 107.702 185C107.752 185 107.801 185 107.851 185C107.9 185 107.949 185 107.999 185C108.048 185 108.097 185 108.147 185C108.196 185 108.245 185 108.295 185C108.344 185 108.393 185 108.442 185C108.491 185 108.541 185 108.59 185C108.639 185 108.688 185 108.737 185C108.786 185 108.835 185 108.884 185C108.933 185 108.982 185 109.031 185C109.08 185 109.129 185 109.178 185C109.227 185 109.276 185 109.325 185C109.373 185 109.422 185 109.471 185C109.52 185 109.568 185 109.617 185C109.666 185 109.715 185 109.763 185C109.812 185 109.86 185 109.909 185C109.958 185 110.006 185 110.055 185C110.103 185 110.152 185 110.2 185C110.249 185 110.297 185 110.345 185C110.394 185 110.442 185 110.49 185C110.539 185 110.587 185 110.635 185C110.683 185 110.732 185 110.78 185C110.828 185 110.876 185 110.924 185C110.972 185 111.02 185 111.068 185C111.116 185 111.164 185 111.212 185C111.26 185 111.308 185 111.356 185C111.404 185 111.451 185 111.499 185C111.547 185 111.595 185 111.642 185C111.69 185 111.738 185 111.785 185C111.833 185 111.881 185 111.928 185C111.976 185 112.023 185 112.071 185C112.118 185 112.165 185 112.213 185C112.26 185 112.308 185 112.355 185C112.402 185 112.449 185 112.497 185C112.544 185 112.591 185 112.638 185C112.685 185 112.732 185 112.779 185C112.826 185 112.873 185 112.92 185C112.967 185 113.014 185 113.061 185C113.108 185 113.155 185 113.201 185C113.248 185 113.295 185 113.342 185C113.388 185 113.435 185 113.482 185C113.528 185 113.575 185 113.621 185C113.668 185 113.714 185 113.76 185C113.807 185 113.853 185 113.9 185C113.946 185 113.992 185 114.038 185C114.084 185 114.131 185 114.177 185C114.223 185 114.269 185 114.315 185C114.361 185 114.407 185 114.453 185C114.499 185 114.545 185 114.59 185C114.636 185 114.682 185 114.728 185C114.773 185 114.819 185 114.865 185C114.91 185 114.956 185 115.001 185C115.047 185 115.092 185 115.138 185C115.183 185 115.229 185 115.274 185C115.319 185 115.364 185 115.41 185C115.455 185 115.5 185 115.545 185C115.59 185 115.635 185 115.68 185C115.725 185 115.77 185 115.815 185C115.86 185 115.905 185 115.949 185C115.994 185 116.039 185 116.083 185C116.128 185 116.173 185 116.217 185C116.262 185 116.306 185 116.351 185C116.395 185 116.44 185 116.484 185C116.528 185 116.572 185 116.617 185C116.661 185 116.705 185 116.749 185C116.793 185 116.837 185 116.881 185C116.925 185 116.969 185 117.013 185C117.057 185 117.1 185 117.144 185C117.188 185 117.232 185 117.275 185C117.319 185 117.362 185 117.406 185C117.449 185 117.493 185 117.536 185C117.579 185 117.623 185 117.666 185C117.709 185 117.752 185 117.796 185C117.839 185 117.882 185 117.925 185C117.968 185 118.011 185 118.053 185C118.096 185 118.139 185 118.182 185C118.225 185 118.267 185 118.31 185C118.352 185 118.395 185 118.438 185C118.48 185 118.522 185 118.565 185C118.607 185 118.649 185 118.692 185C118.734 185 118.776 185 118.818 185C118.86 185 118.902 185 118.944 185C118.986 185 119.028 185 119.07 185C119.112 185 119.153 185 119.195 185C119.237 185 119.278 185 119.32 185C119.361 185 119.403 185 119.444 185C119.486 185 119.527 185 119.568 185C119.61 185 119.651 185 119.692 185C119.733 185 119.774 185 119.815 185C119.856 185 119.897 185 119.938 185C119.979 185 120.02 185 120.06 185C120.101 185 120.142 185 120.182 185C120.223 185 120.263 185 120.304 185C120.344 185 120.384 185 120.425 185C120.465 185 120.505 185 120.545 185C120.585 185 120.625 185 120.665 185C120.705 185 120.745 185 120.785 185C120.825 185 120.865 185 120.904 185C120.944 185 120.984 185 121.023 185C121.063 185 121.102 185 121.142 185C121.181 185 121.22 185 121.26 185C121.299 185 121.338 185 121.377 185C121.416 185 121.455 185 121.494 185C121.533 185 121.572 185 121.611 185C121.649 185 121.688 185 121.727 185C121.765 185 121.804 185 121.842 185C121.881 185 121.919 185 121.957 185C121.996 185 122.034 185 122.072 185C122.11 185 122.148 185 122.186 185C122.224 185 122.262 185 122.3 185C122.338 185 122.375 185 122.413 185C122.451 185 122.488 185 122.526 185C122.563 185 122.601 185 122.638 185C122.675 185 122.712 185 122.75 185C122.787 185 122.824 185 122.861 185C122.898 185 122.935 185 122.972 185C123.008 185 123.045 185 123.082 185C123.118 185 123.155 185 123.191 185C123.228 185 123.264 185 123.301 185C123.337 185 123.373 185 123.409 185C123.445 185 123.482 185 123.518 185C123.553 185 123.589 185 123.625 185C123.661 185 123.697 185 123.732 185C123.768 185 123.803 185 123.839 185C123.874 185 123.91 185 123.945 185C123.98 185 124.015 185 124.05 185C124.086 185 124.121 185 124.155 185C124.19 185 124.225 185 124.26 185C124.295 185 124.329 185 124.364 185C124.398 185 124.433 185 124.467 185C124.502 185 124.536 185 124.57 185C124.604 185 124.638 185 124.672 185C124.706 185 124.74 185 124.774 185C124.808 185 124.842 185 124.875 185C124.909 185 124.942 185 124.976 185C125.009 185 125.043 185 125.076 185C125.109 185 125.142 185 125.175 185C125.208 185 125.241 185 125.274 185C125.307 185 125.34 185 125.373 185C125.405 185 125.438 185 125.47 185C125.503 185 125.535 185 125.567 185C125.6 185 125.632 185 125.664 185C125.696 185 125.728 185 125.76 185C125.792 185 125.824 185 125.856 185C125.887 185 125.919 185 125.95 185C125.982 185 126.013 185 126.045 185C126.076 185 126.107 185 126.138 185C126.169 185 126.2 185 126.231 185C126.262 185 126.293 185 126.324 185C126.355 185 126.385 185 126.416 185C126.446 185 126.477 185 126.507 185C126.537 185 126.567 185 126.598 185C126.628 185 126.658 185 126.688 185C126.717 185 126.747 185 126.777 185C126.807 185 126.836 185 126.866 185C126.895 185 126.925 185 126.954 185C126.983 185 127.012 185 127.041 185C127.071 185 127.099 185 127.128 185C127.157 185 127.186 185 127.215 185C127.243 185 127.272 185 127.3 185C127.329 185 127.357 185 127.385 185C127.413 185 127.442 185 127.47 185C127.498 185 127.525 185 127.553 185C127.581 185 127.609 185 127.636 185C127.664 185 127.691 185 127.719 185C127.746 185 127.773 185 127.801 185C127.828 185 127.855 185 127.882 185C127.909 185 127.935 185 127.962 185C127.989 185 128.015 185 128.042 185C128.068 185 128.095 185 128.121 185C128.147 185 128.173 185 128.199 185C128.225 185 128.251 185 128.277 185C128.303 185 128.329 185 128.354 185C128.38 185 128.405 185 128.431 185C128.456 185 128.481 185 128.506 185C128.532 185 128.557 185 128.581 185C128.606 185 128.631 185 128.656 185C128.681 185 128.705 185 128.73 185C128.754 185 128.778 185 128.803 185C128.827 185 128.851 185 128.875 185C128.899 185 128.923 185 128.946 185C128.97 185 128.994 185 129.017 185C129.041 185 129.064 185 129.087 185C129.111 185 129.134 185 129.157 185C129.18 185 129.203 185 129.226 185C129.249 185 129.271 185 129.294 185C129.316 185 129.339 185 129.361 185C129.383 185 129.406 185 129.428 185C129.45 185 129.472 185 129.494 185C129.515 185 129.537 185 129.559 185C129.58 185 129.602 185 129.623 185C129.645 185 129.666 185 129.687 185C129.708 185 129.729 185 129.75 185C129.771 185 129.791 185 129.812 185C129.833 185 129.853 185 129.874 185C129.894 185 129.914 185 129.934 185C129.954 185 129.974 185 129.994 185C130.014 185 130.034 185 130.054 185C130.073 185 130.093 185 130.112 185C130.131 185 130.151 185 130.17 185C130.189 185 130.208 185 130.227 185C130.246 185 130.264 185 130.283 185C130.302 185 130.32 185 130.338 185C130.357 185 130.375 185 130.393 185C130.411 185 130.429 185 130.447 185C130.465 185 130.482 185 130.5 185V173C130.482 173 130.465 173 130.447 173C130.429 173 130.411 173 130.393 173C130.375 173 130.357 173 130.338 173C130.32 173 130.302 173 130.283 173C130.264 173 130.246 173 130.227 173C130.208 173 130.189 173 130.17 173C130.151 173 130.131 173 130.112 173C130.093 173 130.073 173 130.054 173C130.034 173 130.014 173 129.994 173C129.974 173 129.954 173 129.934 173C129.914 173 129.894 173 129.874 173C129.853 173 129.833 173 129.812 173C129.791 173 129.771 173 129.75 173C129.729 173 129.708 173 129.687 173C129.666 173 129.645 173 129.623 173C129.602 173 129.58 173 129.559 173C129.537 173 129.515 173 129.494 173C129.472 173 129.45 173 129.428 173C129.406 173 129.383 173 129.361 173C129.339 173 129.316 173 129.294 173C129.271 173 129.249 173 129.226 173C129.203 173 129.18 173 129.157 173C129.134 173 129.111 173 129.087 173C129.064 173 129.041 173 129.017 173C128.994 173 128.97 173 128.946 173C128.923 173 128.899 173 128.875 173C128.851 173 128.827 173 128.803 173C128.778 173 128.754 173 128.73 173C128.705 173 128.681 173 128.656 173C128.631 173 128.606 173 128.581 173C128.557 173 128.532 173 128.506 173C128.481 173 128.456 173 128.431 173C128.405 173 128.38 173 128.354 173C128.329 173 128.303 173 128.277 173C128.251 173 128.225 173 128.199 173C128.173 173 128.147 173 128.121 173C128.095 173 128.068 173 128.042 173C128.015 173 127.989 173 127.962 173C127.935 173 127.909 173 127.882 173C127.855 173 127.828 173 127.801 173C127.773 173 127.746 173 127.719 173C127.691 173 127.664 173 127.636 173C127.609 173 127.581 173 127.553 173C127.525 173 127.498 173 127.47 173C127.442 173 127.413 173 127.385 173C127.357 173 127.329 173 127.3 173C127.272 173 127.243 173 127.215 173C127.186 173 127.157 173 127.128 173C127.099 173 127.071 173 127.041 173C127.012 173 126.983 173 126.954 173C126.925 173 126.895 173 126.866 173C126.836 173 126.807 173 126.777 173C126.747 173 126.717 173 126.688 173C126.658 173 126.628 173 126.598 173C126.567 173 126.537 173 126.507 173C126.477 173 126.446 173 126.416 173C126.385 173 126.355 173 126.324 173C126.293 173 126.262 173 126.231 173C126.2 173 126.169 173 126.138 173C126.107 173 126.076 173 126.045 173C126.013 173 125.982 173 125.95 173C125.919 173 125.887 173 125.856 173C125.824 173 125.792 173 125.76 173C125.728 173 125.696 173 125.664 173C125.632 173 125.6 173 125.567 173C125.535 173 125.503 173 125.47 173C125.438 173 125.405 173 125.373 173C125.34 173 125.307 173 125.274 173C125.241 173 125.208 173 125.175 173C125.142 173 125.109 173 125.076 173C125.043 173 125.009 173 124.976 173C124.942 173 124.909 173 124.875 173C124.842 173 124.808 173 124.774 173C124.74 173 124.706 173 124.672 173C124.638 173 124.604 173 124.57 173C124.536 173 124.502 173 124.467 173C124.433 173 124.398 173 124.364 173C124.329 173 124.295 173 124.26 173C124.225 173 124.19 173 124.155 173C124.121 173 124.086 173 124.05 173C124.015 173 123.98 173 123.945 173C123.91 173 123.874 173 123.839 173C123.803 173 123.768 173 123.732 173C123.697 173 123.661 173 123.625 173C123.589 173 123.553 173 123.518 173C123.482 173 123.445 173 123.409 173C123.373 173 123.337 173 123.301 173C123.264 173 123.228 173 123.191 173C123.155 173 123.118 173 123.082 173C123.045 173 123.008 173 122.972 173C122.935 173 122.898 173 122.861 173C122.824 173 122.787 173 122.75 173C122.712 173 122.675 173 122.638 173C122.601 173 122.563 173 122.526 173C122.488 173 122.451 173 122.413 173C122.375 173 122.338 173 122.3 173C122.262 173 122.224 173 122.186 173C122.148 173 122.11 173 122.072 173C122.034 173 121.996 173 121.957 173C121.919 173 121.881 173 121.842 173C121.804 173 121.765 173 121.727 173C121.688 173 121.649 173 121.611 173C121.572 173 121.533 173 121.494 173C121.455 173 121.416 173 121.377 173C121.338 173 121.299 173 121.26 173C121.22 173 121.181 173 121.142 173C121.102 173 121.063 173 121.023 173C120.984 173 120.944 173 120.904 173C120.865 173 120.825 173 120.785 173C120.745 173 120.705 173 120.665 173C120.625 173 120.585 173 120.545 173C120.505 173 120.465 173 120.425 173C120.384 173 120.344 173 120.304 173C120.263 173 120.223 173 120.182 173C120.142 173 120.101 173 120.06 173C120.02 173 119.979 173 119.938 173C119.897 173 119.856 173 119.815 173C119.774 173 119.733 173 119.692 173C119.651 173 119.61 173 119.568 173C119.527 173 119.486 173 119.444 173C119.403 173 119.361 173 119.32 173C119.278 173 119.237 173 119.195 173C119.153 173 119.112 173 119.07 173C119.028 173 118.986 173 118.944 173C118.902 173 118.86 173 118.818 173C118.776 173 118.734 173 118.692 173C118.649 173 118.607 173 118.565 173C118.522 173 118.48 173 118.438 173C118.395 173 118.352 173 118.31 173C118.267 173 118.225 173 118.182 173C118.139 173 118.096 173 118.053 173C118.011 173 117.968 173 117.925 173C117.882 173 117.839 173 117.796 173C117.752 173 117.709 173 117.666 173C117.623 173 117.579 173 117.536 173C117.493 173 117.449 173 117.406 173C117.362 173 117.319 173 117.275 173C117.232 173 117.188 173 117.144 173C117.1 173 117.057 173 117.013 173C116.969 173 116.925 173 116.881 173C116.837 173 116.793 173 116.749 173C116.705 173 116.661 173 116.617 173C116.572 173 116.528 173 116.484 173C116.44 173 116.395 173 116.351 173C116.306 173 116.262 173 116.217 173C116.173 173 116.128 173 116.083 173C116.039 173 115.994 173 115.949 173C115.905 173 115.86 173 115.815 173C115.77 173 115.725 173 115.68 173C115.635 173 115.59 173 115.545 173C115.5 173 115.455 173 115.41 173C115.364 173 115.319 173 115.274 173C115.229 173 115.183 173 115.138 173C115.092 173 115.047 173 115.001 173C114.956 173 114.91 173 114.865 173C114.819 173 114.773 173 114.728 173C114.682 173 114.636 173 114.59 173C114.545 173 114.499 173 114.453 173C114.407 173 114.361 173 114.315 173C114.269 173 114.223 173 114.177 173C114.131 173 114.084 173 114.038 173C113.992 173 113.946 173 113.9 173C113.853 173 113.807 173 113.76 173C113.714 173 113.668 173 113.621 173C113.575 173 113.528 173 113.482 173C113.435 173 113.388 173 113.342 173C113.295 173 113.248 173 113.201 173C113.155 173 113.108 173 113.061 173C113.014 173 112.967 173 112.92 173C112.873 173 112.826 173 112.779 173C112.732 173 112.685 173 112.638 173C112.591 173 112.544 173 112.497 173C112.449 173 112.402 173 112.355 173C112.308 173 112.26 173 112.213 173C112.165 173 112.118 173 112.071 173C112.023 173 111.976 173 111.928 173C111.881 173 111.833 173 111.785 173C111.738 173 111.69 173 111.642 173C111.595 173 111.547 173 111.499 173C111.451 173 111.404 173 111.356 173C111.308 173 111.26 173 111.212 173C111.164 173 111.116 173 111.068 173C111.02 173 110.972 173 110.924 173C110.876 173 110.828 173 110.78 173C110.732 173 110.683 173 110.635 173C110.587 173 110.539 173 110.49 173C110.442 173 110.394 173 110.345 173C110.297 173 110.249 173 110.2 173C110.152 173 110.103 173 110.055 173C110.006 173 109.958 173 109.909 173C109.86 173 109.812 173 109.763 173C109.715 173 109.666 173 109.617 173C109.568 173 109.52 173 109.471 173C109.422 173 109.373 173 109.325 173C109.276 173 109.227 173 109.178 173C109.129 173 109.08 173 109.031 173C108.982 173 108.933 173 108.884 173C108.835 173 108.786 173 108.737 173C108.688 173 108.639 173 108.59 173C108.541 173 108.491 173 108.442 173C108.393 173 108.344 173 108.295 173C108.245 173 108.196 173 108.147 173C108.097 173 108.048 173 107.999 173C107.949 173 107.9 173 107.851 173C107.801 173 107.752 173 107.702 173C107.653 173 107.603 173 107.554 173C107.504 173 107.455 173 107.405 173C107.356 173 107.306 173 107.256 173C107.207 173 107.157 173 107.108 173C107.058 173 107.008 173 106.959 173C106.909 173 106.859 173 106.809 173C106.76 173 106.71 173 106.66 173C106.61 173 106.56 173 106.511 173C106.461 173 106.411 173 106.361 173C106.311 173 106.261 173 106.211 173C106.161 173 106.111 173 106.061 173C106.011 173 105.961 173 105.911 173C105.861 173 105.811 173 105.761 173C105.711 173 105.661 173 105.611 173C105.561 173 105.511 173 105.461 173C105.411 173 105.36 173 105.31 173C105.26 173 105.21 173 105.16 173C105.11 173 105.059 173 105.009 173C104.959 173 104.909 173 104.858 173C104.808 173 104.758 173 104.708 173C104.657 173 104.607 173 104.557 173C104.506 173 104.456 173 104.406 173C104.355 173 104.305 173 104.255 173C104.204 173 104.154 173 104.103 173C104.053 173 104.002 173 103.952 173C103.902 173 103.851 173 103.801 173C103.75 173 103.7 173 103.649 173C103.599 173 103.548 173 103.498 173C103.447 173 103.397 173 103.346 173C103.296 173 103.245 173 103.195 173C103.144 173 103.093 173 103.043 173C102.992 173 102.942 173 102.891 173C102.84 173 102.79 173 102.739 173C102.689 173 102.638 173 102.587 173C102.537 173 102.486 173 102.435 173C102.385 173 102.334 173 102.283 173C102.233 173 102.182 173 102.131 173C102.081 173 102.03 173 101.979 173C101.929 173 101.878 173 101.827 173C101.777 173 101.726 173 101.675 173C101.624 173 101.574 173 101.523 173C101.472 173 101.421 173 101.371 173C101.32 173 101.269 173 101.218 173C101.168 173 101.117 173 101.066 173C101.015 173 100.965 173 100.914 173C100.863 173 100.812 173 100.762 173C100.711 173 100.66 173 100.609 173C100.559 173 100.508 173 100.457 173C100.406 173 100.355 173 100.305 173C100.254 173 100.203 173 100.152 173C100.102 173 100.051 173 100 173C99.9492 173 99.8984 173 99.8477 173C99.7969 173 99.7461 173 99.6953 173C99.6445 173 99.5938 173 99.543 173C99.4922 173 99.4414 173 99.3907 173C99.3399 173 99.2891 173 99.2383 173C99.1876 173 99.1368 173 99.0861 173C99.0353 173 98.9845 173 98.9338 173C98.883 173 98.8323 173 98.7815 173C98.7308 173 98.68 173 98.6293 173C98.5785 173 98.5278 173 98.4771 173C98.4263 173 98.3756 173 98.3249 173C98.2742 173 98.2235 173 98.1728 173C98.122 173 98.0713 173 98.0206 173C97.97 173 97.9193 173 97.8686 173C97.8179 173 97.7672 173 97.7166 173C97.6659 173 97.6152 173 97.5646 173C97.5139 173 97.4633 173 97.4126 173C97.362 173 97.3114 173 97.2608 173C97.2102 173 97.1595 173 97.1089 173C97.0583 173 97.0078 173 96.9572 173C96.9066 173 96.856 173 96.8055 173C96.7549 173 96.7044 173 96.6538 173C96.6033 173 96.5528 173 96.5023 173C96.4517 173 96.4012 173 96.3508 173C96.3003 173 96.2498 173 96.1993 173C96.1489 173 96.0984 173 96.048 173C95.9975 173 95.9471 173 95.8967 173C95.8463 173 95.7959 173 95.7455 173C95.6951 173 95.6447 173 95.5944 173C95.544 173 95.4937 173 95.4434 173C95.393 173 95.3427 173 95.2924 173C95.2421 173 95.1919 173 95.1416 173C95.0913 173 95.0411 173 94.9909 173C94.9406 173 94.8904 173 94.8402 173C94.79 173 94.7399 173 94.6897 173C94.6395 173 94.5894 173 94.5393 173C94.4891 173 94.439 173 94.3889 173C94.3389 173 94.2888 173 94.2387 173C94.1887 173 94.1387 173 94.0886 173C94.0386 173 93.9886 173 93.9387 173C93.8887 173 93.8388 173 93.7888 173C93.7389 173 93.689 173 93.6391 173C93.5892 173 93.5393 173 93.4895 173C93.4397 173 93.3898 173 93.34 173C93.2902 173 93.2405 173 93.1907 173C93.1409 173 93.0912 173 93.0415 173C92.9918 173 92.9421 173 92.8924 173C92.8428 173 92.7931 173 92.7435 173C92.6939 173 92.6443 173 92.5948 173C92.5452 173 92.4957 173 92.4461 173C92.3966 173 92.3471 173 92.2977 173C92.2482 173 92.1988 173 92.1494 173C92.1 173 92.0506 173 92.0012 173C91.9519 173 91.9025 173 91.8532 173C91.8039 173 91.7546 173 91.7054 173C91.6561 173 91.6069 173 91.5577 173C91.5085 173 91.4594 173 91.4102 173C91.3611 173 91.312 173 91.2629 173C91.2138 173 91.1648 173 91.1158 173C91.0668 173 91.0178 173 90.9688 173C90.9199 173 90.8709 173 90.822 173C90.7731 173 90.7243 173 90.6754 173C90.6266 173 90.5778 173 90.529 173C90.4803 173 90.4315 173 90.3828 173C90.3341 173 90.2854 173 90.2368 173C90.1882 173 90.1395 173 90.091 173C90.0424 173 89.9939 173 89.9453 173C89.8968 173 89.8484 173 89.7999 173C89.7515 173 89.7031 173 89.6547 173C89.6063 173 89.558 173 89.5097 173C89.4614 173 89.4132 173 89.3649 173C89.3167 173 89.2685 173 89.2204 173C89.1722 173 89.1241 173 89.076 173C89.0279 173 88.9799 173 88.9319 173C88.8839 173 88.8359 173 88.788 173C88.74 173 88.6921 173 88.6443 173C88.5964 173 88.5486 173 88.5008 173C88.4531 173 88.4053 173 88.3576 173C88.3099 173 88.2623 173 88.2146 173C88.167 173 88.1194 173 88.0719 173C88.0244 173 87.9769 173 87.9294 173C87.8819 173 87.8345 173 87.7872 173C87.7398 173 87.6924 173 87.6452 173C87.5979 173 87.5506 173 87.5034 173C87.4562 173 87.409 173 87.3619 173C87.3148 173 87.2677 173 87.2207 173C87.1737 173 87.1267 173 87.0797 173C87.0328 173 86.9859 173 86.939 173C86.8922 173 86.8453 173 86.7986 173C86.7518 173 86.7051 173 86.6584 173C86.6117 173 86.5651 173 86.5185 173C86.4719 173 86.4254 173 86.3789 173C86.3324 173 86.2859 173 86.2395 173C86.1931 173 86.1468 173 86.1005 173C86.0542 173 86.0079 173 85.9617 173C85.9155 173 85.8694 173 85.8232 173C85.7771 173 85.7311 173 85.6851 173C85.639 173 85.5931 173 85.5472 173C85.5012 173 85.4554 173 85.4096 173C85.3637 173 85.318 173 85.2723 173C85.2265 173 85.1809 173 85.1353 173C85.0897 173 85.0441 173 84.9986 173C84.9531 173 84.9076 173 84.8622 173C84.8168 173 84.7715 173 84.7261 173C84.6808 173 84.6356 173 84.5904 173C84.5452 173 84.5001 173 84.455 173C84.4099 173 84.3649 173 84.3199 173C84.2749 173 84.23 173 84.1851 173C84.1402 173 84.0954 173 84.0506 173C84.0059 173 83.9612 173 83.9165 173C83.8719 173 83.8273 173 83.7827 173C83.7382 173 83.6937 173 83.6493 173C83.6049 173 83.5605 173 83.5162 173C83.4719 173 83.4276 173 83.3834 173C83.3392 173 83.2951 173 83.251 173C83.2069 173 83.1629 173 83.1189 173C83.075 173 83.0311 173 82.9872 173C82.9434 173 82.8996 173 82.8559 173C82.8121 173 82.7685 173 82.7249 173C82.6813 173 82.6377 173 82.5942 173C82.5507 173 82.5073 173 82.4639 173C82.4206 173 82.3773 173 82.334 173C82.2908 173 82.2476 173 82.2045 173C82.1614 173 82.1183 173 82.0753 173C82.0324 173 81.9894 173 81.9466 173C81.9037 173 81.8609 173 81.8182 173C81.7754 173 81.7327 173 81.6901 173C81.6475 173 81.605 173 81.5625 173C81.52 173 81.4776 173 81.4353 173C81.3929 173 81.3506 173 81.3084 173C81.2662 173 81.224 173 81.1819 173C81.1399 173 81.0978 173 81.0559 173C81.0139 173 80.972 173 80.9302 173C80.8884 173 80.8466 173 80.805 173C80.7633 173 80.7217 173 80.6801 173C80.6386 173 80.5971 173 80.5557 173C80.5143 173 80.4729 173 80.4317 173C80.3904 173 80.3492 173 80.308 173C80.2669 173 80.2258 173 80.1849 173C80.1439 173 80.1029 173 80.0621 173C80.0212 173 79.9805 173 79.9398 173C79.899 173 79.8584 173 79.8178 173C79.7773 173 79.7368 173 79.6964 173C79.6559 173 79.6156 173 79.5753 173C79.535 173 79.4948 173 79.4547 173C79.4146 173 79.3745 173 79.3345 173C79.2946 173 79.2547 173 79.2148 173C79.175 173 79.1352 173 79.0955 173C79.0559 173 79.0162 173 78.9767 173C78.9372 173 78.8977 173 78.8583 173C78.819 173 78.7797 173 78.7404 173C78.7012 173 78.662 173 78.623 173C78.5839 173 78.5449 173 78.506 173C78.4671 173 78.4282 173 78.3894 173C78.3507 173 78.312 173 78.2734 173C78.2348 173 78.1962 173 78.1578 173C78.1193 173 78.081 173 78.0427 173C78.0044 173 77.9662 173 77.928 173C77.8899 173 77.8518 173 77.8139 173C77.7759 173 77.738 173 77.7002 173C77.6624 173 77.6247 173 77.587 173C77.5494 173 77.5118 173 77.4743 173C77.4368 173 77.3994 173 77.3621 173C77.3248 173 77.2875 173 77.2504 173C77.2132 173 77.1762 173 77.1392 173C77.1022 173 77.0653 173 77.0285 173C76.9916 173 76.9549 173 76.9182 173C76.8816 173 76.845 173 76.8085 173C76.7721 173 76.7357 173 76.6994 173C76.663 173 76.6268 173 76.5907 173C76.5545 173 76.5185 173 76.4825 173C76.4466 173 76.4107 173 76.3749 173C76.3391 173 76.3034 173 76.2678 173C76.2321 173 76.1966 173 76.1612 173C76.1257 173 76.0904 173 76.0551 173C76.0198 173 75.9847 173 75.9496 173C75.9145 173 75.8795 173 75.8446 173C75.8097 173 75.7749 173 75.7401 173C75.7054 173 75.6708 173 75.6362 173C75.6017 173 75.5672 173 75.5328 173C75.4985 173 75.4642 173 75.43 173C75.3958 173 75.3617 173 75.3277 173C75.2937 173 75.2598 173 75.226 173C75.1922 173 75.1585 173 75.1249 173C75.0912 173 75.0577 173 75.0243 173C74.9908 173 74.9575 173 74.9242 173C74.891 173 74.8578 173 74.8247 173C74.7917 173 74.7587 173 74.7258 173C74.693 173 74.6602 173 74.6275 173C74.5948 173 74.5622 173 74.5297 173C74.4972 173 74.4648 173 74.4325 173C74.4002 173 74.368 173 74.3359 173C74.3038 173 74.2718 173 74.2399 173C74.208 173 74.1762 173 74.1445 173C74.1128 173 74.0811 173 74.0496 173C74.0181 173 73.9867 173 73.9554 173C73.9241 173 73.8928 173 73.8617 173C73.8306 173 73.7996 173 73.7687 173C73.7377 173 73.7069 173 73.6762 173C73.6455 173 73.6149 173 73.5844 173C73.5538 173 73.5234 173 73.4931 173C73.4628 173 73.4326 173 73.4025 173C73.3724 173 73.3424 173 73.3125 173C73.2826 173 73.2528 173 73.2231 173C73.1934 173 73.1638 173 73.1343 173C73.1048 173 73.0754 173 73.0461 173C73.0169 173 72.9877 173 72.9586 173C72.9295 173 72.9006 173 72.8717 173C72.8428 173 72.8141 173 72.7854 173C72.7568 173 72.7282 173 72.6998 173C72.6714 173 72.643 173 72.6148 173C72.5866 173 72.5585 173 72.5304 173C72.5024 173 72.4745 173 72.4467 173C72.4189 173 72.3913 173 72.3637 173C72.3361 173 72.3086 173 72.2813 173C72.2539 173 72.2266 173 72.1995 173C72.1724 173 72.1453 173 72.1184 173C72.0915 173 72.0647 173 72.038 173C72.0113 173 71.9847 173 71.9582 173C71.9317 173 71.9053 173 71.8791 173C71.8528 173 71.8267 173 71.8006 173C71.7746 173 71.7487 173 71.7229 173C71.697 173 71.6713 173 71.6458 173C71.6202 173 71.5947 173 71.5693 173C71.544 173 71.5187 173 71.4936 173C71.4685 173 71.4434 173 71.4185 173C71.3936 173 71.3688 173 71.3442 173C71.3195 173 71.2949 173 71.2705 173C71.246 173 71.2217 173 71.1975 173C71.1733 173 71.1492 173 71.1252 173C71.1012 173 71.0774 173 71.0536 173C71.0299 173 71.0063 173 70.9827 173C70.9592 173 70.9358 173 70.9126 173C70.8893 173 70.8661 173 70.8431 173C70.82 173 70.7971 173 70.7743 173C70.7515 173 70.7288 173 70.7063 173C70.6837 173 70.6613 173 70.6389 173C70.6166 173 70.5944 173 70.5723 173C70.5502 173 70.5283 173 70.5064 173C70.4846 173 70.4629 173 70.4413 173C70.4197 173 70.3982 173 70.3768 173C70.3555 173 70.3343 173 70.3132 173C70.292 173 70.2711 173 70.2502 173C70.2293 173 70.2086 173 70.188 173C70.1673 173 70.1469 173 70.1265 173C70.1061 173 70.0859 173 70.0657 173C70.0456 173 70.0256 173 70.0058 173C69.9859 173 69.9661 173 69.9465 173C69.9269 173 69.9074 173 69.888 173C69.8687 173 69.8494 173 69.8303 173C69.8112 173 69.7922 173 69.7733 173C69.7545 173 69.7357 173 69.7171 173C69.6985 173 69.68 173 69.6617 173C69.6433 173 69.6251 173 69.607 173C69.5889 173 69.571 173 69.5531 173C69.5353 173 69.5176 173 69.5 173V185ZM124.5 179V202H136.5V179H124.5ZM114.357 146.748L113.989 146.489L107.083 156.303L107.451 156.562L114.357 146.748ZM153 120H133.5V132H153V120ZM102.5 120H47V132H102.5V120ZM47 120C45.1964 120 44.1205 119.642 43.4919 119.313C42.8695 118.988 42.4349 118.562 42.0942 118.059C41.3152 116.907 41.0581 115.378 41.0067 114.474L29.0261 115.155C29.1281 116.95 29.607 121.015 32.1536 124.781C34.9668 128.941 39.8145 132 47 132V120ZM41.0065 113.497C41.0574 112.524 41.3204 110.835 42.1478 109.552C42.5126 108.986 42.9631 108.534 43.5741 108.2C44.184 107.866 45.2288 107.5 47 107.5V95.5C39.6742 95.5 34.8196 98.7716 32.0616 103.05C29.5707 106.915 29.1171 111.068 29.0228 112.871L41.0065 113.497ZM153 107.5C154.771 107.5 155.816 107.866 156.426 108.2C157.037 108.534 157.487 108.986 157.852 109.552C158.68 110.835 158.943 112.524 158.994 113.497L170.977 112.871C170.883 111.068 170.429 106.915 167.938 103.05C165.18 98.7716 160.326 95.5 153 95.5V107.5ZM158.993 114.474C158.942 115.378 158.685 116.907 157.906 118.059C157.565 118.562 157.131 118.988 156.508 119.313C155.879 119.642 154.804 120 153 120V132C160.186 132 165.033 128.941 167.846 124.781C170.393 121.015 170.872 116.95 170.974 115.155L158.993 114.474ZM100 83C109.414 83 132.046 81.9914 150.306 63.1788L141.695 54.8211C126.954 70.0086 108.586 71 100 71V83ZM146 59C150.941 55.5962 150.94 55.5939 150.938 55.5916C150.937 55.5907 150.936 55.5882 150.934 55.5864C150.932 55.5829 150.929 55.5789 150.926 55.5747C150.92 55.5661 150.913 55.5562 150.905 55.5449C150.89 55.5223 150.87 55.4943 150.846 55.4611C150.799 55.3946 150.736 55.3071 150.658 55.2C150.501 54.9857 150.281 54.6926 149.998 54.3316C149.433 53.6101 148.615 52.6148 147.543 51.4352C145.405 49.0799 142.234 45.9641 138.031 42.8203C129.615 36.5255 116.959 30.0528 100.197 29.5032L99.8034 41.4968C113.542 41.9472 123.885 47.2245 130.844 52.4297C134.328 55.0359 136.939 57.6076 138.66 59.5024C139.518 60.4477 140.149 61.2181 140.551 61.7309C140.752 61.9871 140.894 62.1784 140.979 62.2942C141.022 62.352 141.05 62.391 141.063 62.4097C141.07 62.4191 141.073 62.4234 141.072 62.4225C141.072 62.422 141.07 62.4202 141.068 62.4171C141.067 62.4156 141.066 62.4137 141.064 62.4115C141.064 62.4104 141.062 62.4085 141.062 62.4079C141.06 62.4059 141.059 62.4038 146 59ZM49.6945 63.1788C67.9538 81.9914 90.5858 83 100 83V71C91.4142 71 73.0462 70.0086 58.3055 54.8211L49.6945 63.1788ZM99.8034 29.5032C83.0416 30.0528 70.3847 36.5255 61.9688 42.8203C57.7657 45.9641 54.5954 49.0799 52.4566 51.4351C51.3853 52.6148 50.5671 53.6101 50.002 54.3316C49.7193 54.6926 49.4994 54.9857 49.3423 55.2C49.2638 55.3071 49.2009 55.3946 49.1537 55.4611C49.1301 55.4943 49.1104 55.5223 49.0946 55.5449C49.0867 55.5562 49.0798 55.5661 49.0738 55.5746C49.0709 55.5789 49.0681 55.5829 49.0657 55.5864C49.0644 55.5882 49.0628 55.5907 49.0621 55.5916C49.0605 55.5939 49.059 55.5962 54 59C58.941 62.4038 58.9396 62.4059 58.9382 62.4079C58.9378 62.4085 58.9365 62.4104 58.9358 62.4115C58.9342 62.4137 58.9329 62.4156 58.9318 62.4171C58.9297 62.4202 58.9285 62.422 58.9281 62.4225C58.9275 62.4234 58.9305 62.4191 58.9371 62.4098C58.9504 62.391 58.9783 62.3521 59.0207 62.2942C59.1056 62.1784 59.2485 61.9871 59.4492 61.7309C59.8509 61.2181 60.4819 60.4477 61.3403 59.5023C63.0609 57.6076 65.6718 55.0359 69.1563 52.4297C76.1154 47.2245 86.4585 41.9472 100.197 41.4968L99.8034 29.5032ZM53 101.5C53 94.938 52.5055 88.3086 53.1043 81.1233C53.6859 74.1442 55.2734 67.7016 58.9332 62.4153L49.0669 55.5847C43.7266 63.2984 41.8141 72.1058 41.1457 80.1267C40.4945 87.9414 41 96.0621 41 101.5H53ZM41 126C41 137.843 40.3614 148.296 40.7339 155.895C41.1231 163.838 42.6168 171.102 48.2574 176.743L56.7426 168.257C54.321 165.836 53.0646 162.35 52.7195 155.308C52.3575 147.923 53 139.157 53 126H41ZM48.2574 176.743C54.7469 183.232 63.0111 185 69.5 185V173C64.9889 173 60.2531 171.768 56.7426 168.257L48.2574 176.743ZM47 107.5H100V95.5H47V107.5ZM100 107.5H153V95.5H100V107.5ZM69.5 185H130.5V173H69.5V185ZM158.994 113.497C159.011 113.838 159.011 114.163 158.993 114.474L170.974 115.155C171.018 114.379 171.016 113.617 170.977 112.871L158.994 113.497ZM41.0067 114.474C40.989 114.163 40.9887 113.838 41.0065 113.497L29.0228 112.871C28.9838 113.617 28.982 114.379 29.0261 115.155L41.0067 114.474ZM111 128.5C111 123.806 107.194 120 102.5 120V132C100.567 132 99 130.433 99 128.5H111ZM99 140.731C99 146.927 102.015 152.736 107.083 156.303L113.989 146.489C112.115 145.17 111 143.022 111 140.731H99ZM107.451 156.562C114.13 161.261 123.104 161.008 129.507 155.939L122.058 146.531C119.823 148.3 116.689 148.389 114.357 146.748L107.451 156.562ZM124.5 141.483C124.5 143.45 123.601 145.309 122.058 146.531L129.507 155.939C133.924 152.442 136.5 147.117 136.5 141.483H124.5ZM136.5 129C136.5 130.657 135.157 132 133.5 132V120C128.529 120 124.5 124.029 124.5 129H136.5Z" fill="white"></path>
</svg><style>@media (prefers-color-scheme: light) { :root { filter: none; } }
</style></svg>